<?xml version="1.0" encoding="UTF-8" standalone="no"?><!DOCTYPE svg PUBLIC "-//W3C//DTD SVG 1.1//EN" "http://www.w3.org/Graphics/SVG/1.1/DTD/svg11.dtd"><svg width="100%" height="100%" viewBox="0 0 412 80" version="1.1" xmlns="http://www.w3.org/2000/svg" xmlns:xlink="http://www.w3.org/1999/xlink" xml:space="preserve" xmlns:serif="http://www.serif.com/" style="fill-rule:evenodd;clip-rule:evenodd;"><g id="combinedLogo"><g><path d="M74.097,16.002l0,11.365c0,3.809 1.58,5.584 3.994,5.584c2.564,0 4.107,-1.757 4.107,-5.584l0,-11.365l3.562,0l0,11.136c0,6.003 -3.089,8.675 -7.797,8.675c-4.497,0 -7.428,-2.523 -7.428,-8.656l0,-11.155l3.562,0Z" style="fill:#231f20;fill-rule:nonzero;"/><path d="M89.659,25.603c0,-1.626 -0.052,-2.968 -0.117,-4.188l3.111,0l0.176,2.114l0.083,0c0.622,-1.092 2.147,-2.432 4.486,-2.432c2.455,0 5.005,1.582 5.005,6.036l0,8.362l-3.564,0l0,-7.943c0,-2.021 -0.74,-3.56 -2.684,-3.56c-1.419,0 -2.4,1.001 -2.772,2.089c-0.108,0.291 -0.162,0.724 -0.162,1.129l0,8.285l-3.562,0l0,-9.892Z" style="fill:#231f20;fill-rule:nonzero;"/><path d="M107.938,19.239c-1.242,0 -2.062,-0.901 -2.058,-2.031c-0.004,-1.138 0.842,-2.022 2.1,-2.022c1.27,0 2.081,0.875 2.092,2.022c0.005,1.13 -0.812,2.031 -2.106,2.031l-0.028,0Zm-1.744,16.256l0,-14.08l3.564,0l0,14.08l-3.564,0Z" style="fill:#231f20;fill-rule:nonzero;"/><path d="M115.844,21.415l2.282,7.15c0.4,1.24 0.697,2.373 0.96,3.519l0.087,0c0.262,-1.166 0.577,-2.27 0.958,-3.519l2.229,-7.15l3.741,0l-5.374,14.08l-3.507,0l-5.229,-14.08l3.853,0Z" style="fill:#231f20;fill-rule:nonzero;"/><path d="M139.779,29.441c0.069,-0.33 0.125,-0.859 0.125,-1.521c0,-3.084 -1.488,-6.849 -6.067,-6.849c-4.528,0 -6.884,3.678 -6.884,7.564c0,4.315 2.678,7.139 7.248,7.139c2.043,0 3.715,-0.383 4.921,-0.894l-0.527,-2.45c-1.076,0.394 -2.248,0.651 -3.885,0.651c-2.28,0 -4.254,-1.115 -4.35,-3.667l9.419,0.027Zm-9.424,-2.509c0.157,-1.44 1.07,-3.43 3.262,-3.43c2.384,0 2.951,2.127 2.938,3.43l-6.2,0Z" style="fill:#231f20;fill-rule:nonzero;"/><path d="M142.797,25.942c0,-1.886 -0.039,-3.272 -0.115,-4.527l3.082,0l0.132,2.676l0.101,0c0.693,-1.983 2.336,-2.994 3.854,-2.994c0.348,0 0.552,0.014 0.835,0.077l0,3.354c-0.332,-0.063 -0.644,-0.102 -1.071,-0.102c-1.697,0 -2.874,1.081 -3.193,2.695c-0.059,0.314 -0.091,0.69 -0.091,1.072l0,7.302l-3.563,0l0.029,-9.553Z" style="fill:#231f20;fill-rule:nonzero;"/><path d="M152.899,32.222c0.786,0.486 2.315,1.026 3.59,1.026c1.567,0 2.267,-0.657 2.267,-1.58c0,-0.954 -0.579,-1.436 -2.311,-2.053c-2.756,-0.944 -3.905,-2.443 -3.893,-4.112c0,-2.475 2.059,-4.406 5.344,-4.406c1.551,0 2.909,0.388 3.734,0.842l-0.706,2.498c-0.591,-0.334 -1.731,-0.808 -2.979,-0.808c-1.265,0 -1.971,0.625 -1.971,1.49c0,0.894 0.68,1.323 2.458,1.971c2.564,0.907 3.745,2.214 3.757,4.29c0,2.567 -1.999,4.42 -5.717,4.42c-1.704,0 -3.255,-0.409 -4.291,-0.987l0.718,-2.591Z" style="fill:#231f20;fill-rule:nonzero;"/><path d="M166.878,19.239c-1.241,0 -2.061,-0.901 -2.057,-2.031c-0.004,-1.138 0.843,-2.022 2.1,-2.022c1.272,0 2.081,0.875 2.094,2.022c0.005,1.13 -0.814,2.031 -2.108,2.031l-0.029,0Zm-1.742,16.256l0,-14.08l3.565,0l0,14.08l-3.565,0Z" style="fill:#231f20;fill-rule:nonzero;"/><path d="M177.191,17.798l0,3.617l3.386,0l0,2.652l-3.386,0l0,6.215c0,1.723 0.459,2.598 1.82,2.598c0.646,0 0.979,-0.044 1.383,-0.155l0.073,2.709c-0.535,0.201 -1.469,0.366 -2.591,0.366c-1.309,0 -2.399,-0.446 -3.06,-1.161c-0.766,-0.809 -1.115,-2.104 -1.115,-3.948l0,-6.624l-2.009,0l0,-2.652l2.009,0l0,-2.621l3.49,-0.996Z" style="fill:#231f20;fill-rule:nonzero;"/><path d="M186.271,21.415l2.536,7.549c0.283,0.871 0.588,1.948 0.794,2.73l0.083,0c0.221,-0.791 0.484,-1.851 0.747,-2.76l2.205,-7.519l3.798,0l-3.527,9.609c-1.933,5.256 -3.239,7.591 -4.898,9.052c-1.4,1.22 -2.848,1.684 -3.732,1.8l-0.804,-2.997c0.595,-0.149 1.341,-0.469 2.056,-0.972c0.678,-0.444 1.464,-1.276 1.954,-2.244c0.141,-0.243 0.224,-0.452 0.224,-0.625c0,-0.155 -0.039,-0.363 -0.186,-0.695l-5.174,-12.928l3.924,0Z" style="fill:#231f20;fill-rule:nonzero;"/><path d="M76.607,63.903c3.571,0 7.204,-2.32 7.204,-7.496c0,-4.268 -2.804,-7.22 -6.994,-7.22c-4.242,0 -7.284,2.844 -7.284,7.464c0,4.512 3.073,7.252 7.044,7.252l0.03,0Zm0.027,-2.586c-2.118,0 -3.472,-2.048 -3.472,-4.757c0,-2.349 1.026,-4.787 3.524,-4.787c2.458,0 3.437,2.528 3.437,4.741c0,2.833 -1.418,4.803 -3.459,4.803l-0.03,0Z" style="fill:#231f20;fill-rule:nonzero;"/><path d="M87.14,63.587l0,-11.428l-1.909,0l0,-2.653l1.909,0l0,-0.599c0,-1.824 0.489,-3.659 1.709,-4.816c1.042,-0.991 2.448,-1.359 3.685,-1.359c0.946,0 1.704,0.158 2.26,0.35l-0.249,2.736c-0.386,-0.141 -0.856,-0.254 -1.518,-0.254c-1.761,0 -2.35,1.481 -2.35,3.205l0,0.737l3.078,0l0,2.653l-3.053,0l0,11.428l-3.562,0Z" style="fill:#231f20;fill-rule:nonzero;"/><path d="M106.737,63.587l-6.312,-19.496l3.886,0l2.66,8.866c0.751,2.457 1.402,4.74 1.905,7.098l0.065,0c0.518,-2.301 1.223,-4.679 1.981,-7.047l2.845,-8.917l3.79,0l-6.74,19.496l-4.08,0Z" style="fill:#231f20;fill-rule:nonzero;"/><path d="M121.454,47.331c-1.243,0 -2.063,-0.904 -2.058,-2.031c-0.005,-1.141 0.842,-2.025 2.099,-2.025c1.273,0 2.084,0.874 2.095,2.025c0.003,1.127 -0.815,2.031 -2.106,2.031l-0.03,0Zm-1.743,16.256l0,-14.081l3.563,0l0,14.081l-3.563,0Z" style="fill:#231f20;fill-rule:nonzero;"/><path d="M137.445,63.162c-0.738,0.348 -2.207,0.727 -3.976,0.727c-4.413,0 -7.258,-2.832 -7.258,-7.202c0,-4.216 2.882,-7.493 7.832,-7.493c1.317,0 2.626,0.288 3.44,0.644l-0.632,2.677c-0.572,-0.28 -1.427,-0.551 -2.694,-0.551c-2.714,0 -4.322,1.985 -4.31,4.566c0,2.889 1.895,4.544 4.322,4.544c1.221,0 2.1,-0.265 2.798,-0.555l0.478,2.643Z" style="fill:#231f20;fill-rule:nonzero;"/><path d="M144.602,45.886l0,3.62l3.387,0l0,2.653l-3.387,0l0,6.211c0,1.724 0.459,2.6 1.82,2.6c0.646,0 0.98,-0.046 1.383,-0.157l0.073,2.71c-0.534,0.201 -1.469,0.366 -2.59,0.366c-1.309,0 -2.4,-0.445 -3.061,-1.159c-0.766,-0.809 -1.114,-2.105 -1.114,-3.95l0,-6.621l-2.01,0l0,-2.653l2.01,0l0,-2.623l3.489,-0.997Z" style="fill:#231f20;fill-rule:nonzero;"/><path d="M156.693,63.903c3.574,0 7.207,-2.32 7.207,-7.496c0,-4.268 -2.806,-7.22 -6.996,-7.22c-4.244,0 -7.284,2.844 -7.284,7.464c0,4.512 3.072,7.252 7.047,7.252l0.026,0Zm0.03,-2.586c-2.12,0 -3.473,-2.048 -3.473,-4.757c0,-2.349 1.024,-4.787 3.525,-4.787c2.456,0 3.435,2.528 3.435,4.741c0,2.833 -1.417,4.803 -3.46,4.803l-0.027,0Z" style="fill:#231f20;fill-rule:nonzero;"/><path d="M166.861,54.033c0,-1.886 -0.039,-3.275 -0.116,-4.527l3.082,0l0.134,2.675l0.1,0c0.693,-1.982 2.335,-2.994 3.853,-2.994c0.347,0 0.551,0.015 0.836,0.079l0,3.352c-0.332,-0.064 -0.644,-0.1 -1.074,-0.1c-1.695,0 -2.87,1.077 -3.19,2.691c-0.059,0.314 -0.09,0.693 -0.09,1.074l0,7.304l-3.564,0l0.029,-9.554Z" style="fill:#231f20;fill-rule:nonzero;"/><path d="M178.897,47.331c-1.242,0 -2.062,-0.904 -2.057,-2.031c-0.005,-1.141 0.843,-2.025 2.1,-2.025c1.269,0 2.08,0.874 2.093,2.025c0.005,1.127 -0.814,2.031 -2.108,2.031l-0.028,0Zm-1.743,16.256l0,-14.081l3.564,0l0,14.081l-3.564,0Z" style="fill:#231f20;fill-rule:nonzero;"/><path d="M195.471,55.123c0,-3.089 -1.289,-5.936 -5.806,-5.936c-2.218,0 -4.04,0.604 -5.104,1.25l0.705,2.311c0.96,-0.606 2.407,-1.051 3.785,-1.051c2.493,-0.009 2.861,1.53 2.861,2.454l0,0.233c-5.187,-0.019 -8.353,1.778 -8.353,5.331c0,2.147 1.582,4.188 4.439,4.188c1.824,0 3.295,-0.776 4.149,-1.886l0.087,0l0.243,1.57l3.213,0c-0.155,-0.87 -0.219,-2.112 -0.219,-3.392l0,-5.072Zm-3.466,3.512c0,0.248 -0.021,0.528 -0.098,0.774c-0.341,1.031 -1.365,1.95 -2.788,1.95c-1.124,0 -2.028,-0.651 -2.028,-2.028c0,-2.144 2.402,-2.675 4.914,-2.641l0,1.945Z" style="fill:#231f20;fill-rule:nonzero;"/></g><rect x="212.786" y="5.651" width="2.741" height="67.786"/><g transform="matrix(0.399335,-2.55655e-32,-1.98843e-32,0.399335,109.427,-5.15261)"><path d="M308.501,67.839l0,31.622l4.207,0l0,-14.482l16.653,0l0,14.482l4.207,0l0,-31.622l-4.207,0l0,13.597l-16.653,0l0,-13.597l-4.207,0Z" style="fill-rule:nonzero;"/><path d="M358.813,99.461l0,-22.897l-3.765,0l0,12.932c0,1.034 -0.14,1.986 -0.42,2.857c-0.281,0.871 -0.702,1.631 -1.263,2.281c-0.561,0.649 -1.262,1.151 -2.103,1.505c-0.842,0.355 -1.838,0.532 -2.99,0.532c-1.447,0 -2.583,-0.413 -3.41,-1.24c-0.827,-0.827 -1.24,-1.949 -1.24,-3.366l0,-15.501l-3.765,0l0,15.058c0,1.24 0.126,2.369 0.377,3.388c0.251,1.019 0.686,1.897 1.306,2.635c0.62,0.738 1.432,1.307 2.436,1.705c1.004,0.399 2.259,0.598 3.765,0.598c1.683,0 3.144,-0.332 4.384,-0.996c1.24,-0.665 2.259,-1.705 3.056,-3.123l0.089,0l0,3.632l3.543,0Z" style="fill-rule:nonzero;"/><path d="M364.482,76.564l0,22.897l3.764,0l0,-14.261c0,-0.443 0.111,-0.996 0.333,-1.661c0.221,-0.664 0.575,-1.306 1.063,-1.926c0.487,-0.62 1.122,-1.152 1.904,-1.595c0.782,-0.443 1.72,-0.664 2.812,-0.664c0.857,0 1.558,0.125 2.104,0.376c0.546,0.251 0.982,0.606 1.307,1.063c0.324,0.458 0.553,0.997 0.686,1.617c0.133,0.62 0.199,1.299 0.199,2.037l0,15.014l3.765,0l0,-14.261c0,-1.771 0.531,-3.189 1.594,-4.252c1.063,-1.063 2.525,-1.594 4.385,-1.594c0.915,0 1.661,0.133 2.237,0.399c0.575,0.265 1.026,0.627 1.35,1.085c0.325,0.457 0.547,0.996 0.665,1.616c0.118,0.62 0.177,1.285 0.177,1.993l0,15.014l3.764,0l0,-16.785c0,-1.181 -0.184,-2.193 -0.553,-3.034c-0.369,-0.842 -0.886,-1.528 -1.55,-2.06c-0.665,-0.531 -1.462,-0.922 -2.392,-1.173c-0.93,-0.251 -1.971,-0.377 -3.122,-0.377c-1.506,0 -2.886,0.34 -4.141,1.019c-1.255,0.679 -2.266,1.639 -3.034,2.879c-0.473,-1.418 -1.284,-2.421 -2.436,-3.012c-1.152,-0.59 -2.436,-0.886 -3.853,-0.886c-3.218,0 -5.684,1.299 -7.396,3.898l-0.089,0l0,-3.366l-3.543,0Z" style="fill-rule:nonzero;"/><path d="M422.545,99.373c-0.65,0.383 -1.55,0.575 -2.702,0.575c-0.974,0 -1.749,-0.273 -2.325,-0.819c-0.576,-0.546 -0.864,-1.439 -0.864,-2.679c-1.033,1.24 -2.236,2.133 -3.609,2.679c-1.373,0.546 -2.857,0.819 -4.451,0.819c-1.034,0 -2.015,-0.118 -2.945,-0.354c-0.931,-0.236 -1.735,-0.605 -2.414,-1.107c-0.679,-0.502 -1.218,-1.159 -1.617,-1.971c-0.398,-0.812 -0.598,-1.794 -0.598,-2.945c0,-1.299 0.222,-2.362 0.665,-3.189c0.443,-0.827 1.026,-1.499 1.749,-2.015c0.723,-0.517 1.55,-0.908 2.48,-1.174c0.93,-0.266 1.883,-0.487 2.857,-0.664c1.033,-0.207 2.015,-0.362 2.945,-0.465c0.93,-0.104 1.75,-0.251 2.458,-0.443c0.709,-0.192 1.27,-0.473 1.683,-0.842c0.413,-0.369 0.62,-0.908 0.62,-1.616c0,-0.827 -0.155,-1.491 -0.465,-1.993c-0.31,-0.502 -0.708,-0.886 -1.196,-1.152c-0.487,-0.265 -1.033,-0.443 -1.638,-0.531c-0.606,-0.089 -1.204,-0.133 -1.794,-0.133c-1.594,0 -2.923,0.303 -3.986,0.908c-1.063,0.605 -1.639,1.749 -1.727,3.432l-3.765,0c0.059,-1.417 0.354,-2.613 0.886,-3.587c0.531,-0.974 1.24,-1.764 2.126,-2.37c0.886,-0.605 1.897,-1.04 3.034,-1.306c1.136,-0.266 2.354,-0.399 3.653,-0.399c1.034,0 2.06,0.074 3.078,0.222c1.019,0.147 1.942,0.45 2.769,0.908c0.826,0.457 1.491,1.099 1.993,1.926c0.501,0.827 0.752,1.905 0.752,3.233l0,11.781c0,0.886 0.052,1.536 0.155,1.949c0.104,0.413 0.451,0.62 1.041,0.62c0.325,0 0.709,-0.074 1.152,-0.221l0,2.923Zm-6.112,-11.737c-0.473,0.354 -1.093,0.613 -1.86,0.775c-0.768,0.162 -1.573,0.295 -2.414,0.399c-0.842,0.103 -1.69,0.221 -2.547,0.354c-0.856,0.133 -1.624,0.347 -2.303,0.642c-0.679,0.295 -1.232,0.716 -1.66,1.262c-0.429,0.547 -0.643,1.292 -0.643,2.237c0,0.62 0.126,1.144 0.377,1.572c0.251,0.428 0.576,0.775 0.974,1.041c0.399,0.266 0.864,0.458 1.395,0.576c0.532,0.118 1.093,0.177 1.683,0.177c1.24,0 2.303,-0.17 3.189,-0.509c0.886,-0.34 1.609,-0.768 2.17,-1.285c0.561,-0.516 0.975,-1.077 1.24,-1.683c0.266,-0.605 0.399,-1.173 0.399,-1.705l0,-3.853Z" style="fill-rule:nonzero;"/><path d="M426.044,76.564l0,22.897l3.764,0l0,-12.932c0,-1.034 0.14,-1.986 0.421,-2.857c0.28,-0.871 0.701,-1.631 1.262,-2.281c0.561,-0.649 1.262,-1.151 2.104,-1.506c0.841,-0.354 1.838,-0.531 2.989,-0.531c1.447,0 2.584,0.413 3.411,1.24c0.826,0.827 1.24,1.949 1.24,3.366l0,15.501l3.764,0l0,-15.058c0,-1.24 -0.125,-2.37 -0.376,-3.388c-0.251,-1.019 -0.687,-1.897 -1.307,-2.635c-0.62,-0.739 -1.432,-1.314 -2.436,-1.728c-1.003,-0.413 -2.258,-0.62 -3.764,-0.62c-3.396,0 -5.876,1.388 -7.441,4.163l-0.088,0l0,-3.631l-3.543,0Z" style="fill-rule:nonzero;"/><path d="M454.654,72.445l0,-4.606l-3.764,0l0,4.606l3.764,0Zm-3.764,4.119l0,22.897l3.764,0l0,-22.897l-3.764,0Z" style="fill-rule:nonzero;"/><path d="M465.727,76.564l0,-6.865l-3.765,0l0,6.865l-3.897,0l0,3.321l3.897,0l0,14.572c0,1.062 0.103,1.919 0.31,2.568c0.207,0.65 0.524,1.152 0.952,1.506c0.428,0.354 0.989,0.598 1.683,0.731c0.694,0.133 1.528,0.199 2.502,0.199l2.879,0l0,-3.322l-1.727,0c-0.591,0 -1.07,-0.022 -1.439,-0.066c-0.369,-0.044 -0.657,-0.14 -0.864,-0.288c-0.207,-0.147 -0.347,-0.354 -0.421,-0.62c-0.074,-0.266 -0.11,-0.62 -0.11,-1.063l0,-14.217l4.561,0l0,-3.321l-4.561,0Z" style="fill-rule:nonzero;"/><path d="M478.437,72.445l0,-4.606l-3.764,0l0,4.606l3.764,0Zm-3.764,4.119l0,22.897l3.764,0l0,-22.897l-3.764,0Z" style="fill-rule:nonzero;"/><path d="M500.183,85.82l-13.153,0c0.059,-0.886 0.25,-1.72 0.575,-2.502c0.325,-0.783 0.768,-1.469 1.329,-2.06c0.561,-0.59 1.233,-1.055 2.015,-1.395c0.783,-0.339 1.661,-0.509 2.635,-0.509c0.945,0 1.809,0.17 2.591,0.509c0.783,0.34 1.462,0.797 2.037,1.373c0.576,0.576 1.034,1.262 1.373,2.06c0.34,0.797 0.539,1.638 0.598,2.524Zm3.632,6.378l-3.72,0c-0.325,1.506 -0.997,2.628 -2.015,3.366c-1.019,0.738 -2.326,1.107 -3.92,1.107c-1.24,0 -2.318,-0.207 -3.233,-0.62c-0.915,-0.413 -1.668,-0.967 -2.259,-1.661c-0.59,-0.694 -1.018,-1.491 -1.284,-2.392c-0.266,-0.9 -0.384,-1.852 -0.354,-2.856l17.139,0c0.059,-1.388 -0.066,-2.849 -0.376,-4.385c-0.31,-1.535 -0.871,-2.952 -1.683,-4.252c-0.812,-1.299 -1.89,-2.369 -3.233,-3.21c-1.344,-0.842 -3.034,-1.263 -5.071,-1.263c-1.565,0 -3.005,0.296 -4.318,0.886c-1.314,0.591 -2.451,1.417 -3.411,2.48c-0.959,1.063 -1.705,2.318 -2.236,3.765c-0.532,1.447 -0.797,3.041 -0.797,4.783c0.059,1.742 0.317,3.351 0.775,4.828c0.457,1.476 1.144,2.745 2.059,3.808c0.915,1.063 2.045,1.89 3.388,2.481c1.344,0.59 2.931,0.885 4.761,0.885c2.598,0 4.754,-0.649 6.466,-1.948c1.713,-1.3 2.82,-3.233 3.322,-5.802Z" style="fill-rule:nonzero;"/><path d="M510.37,92.242l-3.765,0c0.059,1.417 0.355,2.62 0.886,3.61c0.531,0.989 1.24,1.786 2.126,2.391c0.886,0.605 1.904,1.041 3.056,1.307c1.151,0.265 2.362,0.398 3.632,0.398c1.151,0 2.31,-0.11 3.476,-0.332c1.166,-0.221 2.215,-0.612 3.145,-1.173c0.93,-0.561 1.683,-1.3 2.258,-2.215c0.576,-0.915 0.864,-2.067 0.864,-3.454c0,-1.093 -0.214,-2.008 -0.642,-2.746c-0.428,-0.739 -0.989,-1.351 -1.683,-1.838c-0.694,-0.488 -1.491,-0.879 -2.392,-1.174c-0.9,-0.295 -1.823,-0.546 -2.768,-0.753c-0.886,-0.207 -1.771,-0.406 -2.657,-0.598c-0.886,-0.192 -1.683,-0.428 -2.392,-0.708c-0.708,-0.281 -1.291,-0.635 -1.749,-1.063c-0.458,-0.429 -0.687,-0.967 -0.687,-1.617c0,-0.59 0.148,-1.07 0.443,-1.439c0.296,-0.369 0.679,-0.665 1.152,-0.886c0.472,-0.222 0.996,-0.377 1.572,-0.465c0.576,-0.089 1.144,-0.133 1.705,-0.133c0.62,0 1.233,0.066 1.838,0.199c0.605,0.133 1.159,0.347 1.661,0.642c0.502,0.296 0.915,0.687 1.24,1.174c0.325,0.487 0.517,1.1 0.576,1.838l3.764,0c-0.088,-1.388 -0.383,-2.547 -0.885,-3.477c-0.502,-0.93 -1.174,-1.668 -2.015,-2.214c-0.842,-0.546 -1.809,-0.93 -2.901,-1.152c-1.093,-0.221 -2.289,-0.332 -3.588,-0.332c-1.004,0 -2.015,0.126 -3.034,0.377c-1.018,0.251 -1.934,0.635 -2.746,1.151c-0.811,0.517 -1.476,1.189 -1.993,2.015c-0.516,0.827 -0.775,1.816 -0.775,2.968c0,1.476 0.369,2.628 1.108,3.454c0.738,0.827 1.66,1.469 2.768,1.927c1.107,0.458 2.31,0.812 3.609,1.063c1.299,0.251 2.503,0.531 3.61,0.841c1.107,0.31 2.03,0.716 2.768,1.218c0.738,0.502 1.107,1.24 1.107,2.215c0,0.708 -0.177,1.291 -0.531,1.749c-0.355,0.458 -0.805,0.805 -1.351,1.041c-0.546,0.236 -1.144,0.399 -1.794,0.487c-0.649,0.089 -1.27,0.133 -1.86,0.133c-0.768,0 -1.513,-0.074 -2.237,-0.221c-0.723,-0.148 -1.373,-0.392 -1.948,-0.731c-0.576,-0.34 -1.041,-0.797 -1.395,-1.373c-0.355,-0.576 -0.547,-1.277 -0.576,-2.104Z" style="fill-rule:nonzero;"/><path d="M565.377,77.361l4.207,0c-0.236,-1.683 -0.738,-3.167 -1.506,-4.451c-0.767,-1.284 -1.727,-2.355 -2.878,-3.211c-1.152,-0.856 -2.466,-1.506 -3.942,-1.949c-1.476,-0.443 -3.041,-0.664 -4.695,-0.664c-2.421,0 -4.569,0.435 -6.444,1.306c-1.875,0.871 -3.44,2.06 -4.694,3.566c-1.255,1.506 -2.208,3.27 -2.857,5.292c-0.65,2.023 -0.974,4.186 -0.974,6.489c0,2.303 0.302,4.458 0.907,6.466c0.606,2.008 1.514,3.75 2.724,5.226c1.211,1.476 2.731,2.635 4.562,3.477c1.831,0.841 3.971,1.262 6.422,1.262c4.045,0 7.234,-1.107 9.566,-3.322c2.333,-2.214 3.706,-5.315 4.119,-9.301l-4.207,0c-0.089,1.3 -0.355,2.51 -0.797,3.632c-0.443,1.122 -1.056,2.089 -1.838,2.901c-0.783,0.812 -1.713,1.447 -2.791,1.904c-1.077,0.458 -2.31,0.687 -3.698,0.687c-1.889,0 -3.513,-0.354 -4.872,-1.063c-1.358,-0.709 -2.472,-1.661 -3.343,-2.857c-0.871,-1.195 -1.514,-2.598 -1.927,-4.207c-0.413,-1.609 -0.62,-3.314 -0.62,-5.115c0,-1.654 0.207,-3.248 0.62,-4.784c0.413,-1.535 1.056,-2.901 1.927,-4.096c0.871,-1.196 1.978,-2.148 3.321,-2.857c1.344,-0.709 2.96,-1.063 4.85,-1.063c2.214,0 4.126,0.561 5.735,1.683c1.61,1.122 2.65,2.805 3.123,5.049Z" style="fill-rule:nonzero;"/><path d="M577.246,88.035c0,-1.388 0.185,-2.621 0.554,-3.699c0.369,-1.077 0.878,-1.985 1.528,-2.723c0.649,-0.738 1.41,-1.299 2.281,-1.683c0.871,-0.384 1.793,-0.576 2.768,-0.576c0.974,0 1.897,0.192 2.768,0.576c0.871,0.384 1.631,0.945 2.281,1.683c0.649,0.738 1.159,1.646 1.528,2.723c0.369,1.078 0.553,2.311 0.553,3.699c0,1.387 -0.184,2.62 -0.553,3.698c-0.369,1.077 -0.879,1.978 -1.528,2.701c-0.65,0.724 -1.41,1.277 -2.281,1.661c-0.871,0.384 -1.794,0.576 -2.768,0.576c-0.975,0 -1.897,-0.192 -2.768,-0.576c-0.871,-0.384 -1.632,-0.937 -2.281,-1.661c-0.65,-0.723 -1.159,-1.624 -1.528,-2.701c-0.369,-1.078 -0.554,-2.311 -0.554,-3.698Zm-3.986,0c0,1.683 0.236,3.247 0.709,4.694c0.472,1.447 1.181,2.709 2.126,3.787c0.944,1.078 2.111,1.919 3.498,2.524c1.388,0.606 2.983,0.908 4.784,0.908c1.83,0 3.432,-0.302 4.805,-0.908c1.373,-0.605 2.532,-1.446 3.477,-2.524c0.945,-1.078 1.653,-2.34 2.126,-3.787c0.472,-1.447 0.708,-3.011 0.708,-4.694c0,-1.683 -0.236,-3.256 -0.708,-4.717c-0.473,-1.462 -1.181,-2.731 -2.126,-3.809c-0.945,-1.078 -2.104,-1.927 -3.477,-2.547c-1.373,-0.62 -2.975,-0.93 -4.805,-0.93c-1.801,0 -3.396,0.31 -4.784,0.93c-1.387,0.62 -2.554,1.469 -3.498,2.547c-0.945,1.078 -1.654,2.347 -2.126,3.809c-0.473,1.461 -0.709,3.034 -0.709,4.717Z" style="fill-rule:nonzero;"/><path d="M599.922,76.564l0,22.897l3.765,0l0,-14.261c0,-0.443 0.11,-0.996 0.332,-1.661c0.221,-0.664 0.576,-1.306 1.063,-1.926c0.487,-0.62 1.122,-1.152 1.904,-1.595c0.783,-0.443 1.72,-0.664 2.813,-0.664c0.856,0 1.557,0.125 2.103,0.376c0.547,0.251 0.982,0.606 1.307,1.063c0.325,0.458 0.553,0.997 0.686,1.617c0.133,0.62 0.2,1.299 0.2,2.037l0,15.014l3.764,0l0,-14.261c0,-1.771 0.532,-3.189 1.595,-4.252c1.063,-1.063 2.524,-1.594 4.384,-1.594c0.915,0 1.661,0.133 2.237,0.399c0.576,0.265 1.026,0.627 1.351,1.085c0.324,0.457 0.546,0.996 0.664,1.616c0.118,0.62 0.177,1.285 0.177,1.993l0,15.014l3.765,0l0,-16.785c0,-1.181 -0.185,-2.193 -0.554,-3.034c-0.369,-0.842 -0.886,-1.528 -1.55,-2.06c-0.664,-0.531 -1.462,-0.922 -2.392,-1.173c-0.93,-0.251 -1.971,-0.377 -3.122,-0.377c-1.506,0 -2.886,0.34 -4.141,1.019c-1.255,0.679 -2.266,1.639 -3.034,2.879c-0.472,-1.418 -1.284,-2.421 -2.436,-3.012c-1.151,-0.59 -2.436,-0.886 -3.853,-0.886c-3.218,0 -5.684,1.299 -7.396,3.898l-0.089,0l0,-3.366l-3.543,0Z" style="fill-rule:nonzero;"/><path d="M637.833,76.564l0,31.622l3.765,0l0,-11.781l0.089,0c0.413,0.679 0.922,1.248 1.528,1.705c0.605,0.458 1.247,0.82 1.926,1.085c0.679,0.266 1.366,0.458 2.06,0.576c0.693,0.118 1.321,0.177 1.882,0.177c1.742,0 3.27,-0.31 4.584,-0.93c1.314,-0.62 2.406,-1.469 3.277,-2.546c0.871,-1.078 1.521,-2.34 1.949,-3.787c0.428,-1.447 0.642,-2.982 0.642,-4.606c0,-1.624 -0.221,-3.159 -0.664,-4.606c-0.443,-1.447 -1.1,-2.724 -1.971,-3.831c-0.871,-1.107 -1.964,-1.986 -3.277,-2.635c-1.314,-0.65 -2.857,-0.975 -4.629,-0.975c-1.594,0 -3.056,0.288 -4.384,0.864c-1.329,0.576 -2.303,1.498 -2.923,2.768l-0.089,0l0,-3.1l-3.765,0Zm17.716,11.249c0,1.122 -0.118,2.215 -0.354,3.278c-0.236,1.062 -0.62,2.007 -1.152,2.834c-0.531,0.827 -1.232,1.491 -2.103,1.993c-0.871,0.502 -1.957,0.753 -3.256,0.753c-1.299,0 -2.406,-0.244 -3.321,-0.731c-0.916,-0.487 -1.661,-1.129 -2.237,-1.926c-0.576,-0.798 -0.996,-1.72 -1.262,-2.768c-0.266,-1.049 -0.399,-2.134 -0.399,-3.256c0,-1.063 0.126,-2.111 0.377,-3.144c0.251,-1.034 0.657,-1.956 1.218,-2.768c0.561,-0.812 1.284,-1.469 2.17,-1.971c0.886,-0.502 1.963,-0.753 3.233,-0.753c1.21,0 2.266,0.236 3.167,0.709c0.9,0.472 1.638,1.107 2.214,1.904c0.576,0.797 1.004,1.705 1.284,2.724c0.281,1.018 0.421,2.059 0.421,3.122Z" style="fill-rule:nonzero;"/><path d="M682.92,99.461l0,-22.897l-3.765,0l0,12.932c0,1.034 -0.14,1.986 -0.421,2.857c-0.28,0.871 -0.701,1.631 -1.262,2.281c-0.561,0.649 -1.262,1.151 -2.104,1.505c-0.841,0.355 -1.838,0.532 -2.989,0.532c-1.447,0 -2.584,-0.413 -3.41,-1.24c-0.827,-0.827 -1.24,-1.949 -1.24,-3.366l0,-15.501l-3.765,0l0,15.058c0,1.24 0.125,2.369 0.376,3.388c0.251,1.019 0.687,1.897 1.307,2.635c0.62,0.738 1.432,1.307 2.436,1.705c1.004,0.399 2.259,0.598 3.764,0.598c1.683,0 3.145,-0.332 4.385,-0.996c1.24,-0.665 2.259,-1.705 3.056,-3.123l0.089,0l0,3.632l3.543,0Z" style="fill-rule:nonzero;"/><path d="M693.815,76.564l0,-6.865l-3.765,0l0,6.865l-3.897,0l0,3.321l3.897,0l0,14.572c0,1.062 0.104,1.919 0.31,2.568c0.207,0.65 0.524,1.152 0.952,1.506c0.429,0.354 0.99,0.598 1.683,0.731c0.694,0.133 1.528,0.199 2.503,0.199l2.879,0l0,-3.322l-1.728,0c-0.59,0 -1.07,-0.022 -1.439,-0.066c-0.369,-0.044 -0.657,-0.14 -0.864,-0.288c-0.206,-0.147 -0.347,-0.354 -0.421,-0.62c-0.073,-0.266 -0.11,-0.62 -0.11,-1.063l0,-14.217l4.562,0l0,-3.321l-4.562,0Z" style="fill-rule:nonzero;"/><path d="M706.526,72.445l0,-4.606l-3.765,0l0,4.606l3.765,0Zm-3.765,4.119l0,22.897l3.765,0l0,-22.897l-3.765,0Z" style="fill-rule:nonzero;"/><path d="M712.372,76.564l0,22.897l3.764,0l0,-12.932c0,-1.034 0.141,-1.986 0.421,-2.857c0.281,-0.871 0.701,-1.631 1.262,-2.281c0.561,-0.649 1.263,-1.151 2.104,-1.506c0.842,-0.354 1.838,-0.531 2.99,-0.531c1.446,0 2.583,0.413 3.41,1.24c0.827,0.827 1.24,1.949 1.24,3.366l0,15.501l3.765,0l0,-15.058c0,-1.24 -0.126,-2.37 -0.377,-3.388c-0.251,-1.019 -0.686,-1.897 -1.306,-2.635c-0.62,-0.739 -1.432,-1.314 -2.436,-1.728c-1.004,-0.413 -2.259,-0.62 -3.765,-0.62c-3.395,0 -5.876,1.388 -7.44,4.163l-0.089,0l0,-3.631l-3.543,0Z" style="fill-rule:nonzero;"/><path d="M756.749,97.512l0,-20.948l-3.543,0l0,3.277l-0.044,0c-0.679,-1.269 -1.624,-2.222 -2.834,-2.857c-1.211,-0.634 -2.54,-0.952 -3.986,-0.952c-1.979,0 -3.647,0.377 -5.005,1.13c-1.358,0.753 -2.451,1.712 -3.278,2.878c-0.826,1.167 -1.417,2.466 -1.771,3.898c-0.354,1.432 -0.532,2.827 -0.532,4.185c0,1.565 0.215,3.049 0.643,4.451c0.428,1.403 1.07,2.628 1.926,3.676c0.856,1.048 1.919,1.882 3.189,2.503c1.27,0.62 2.761,0.93 4.473,0.93c1.476,0 2.872,-0.333 4.186,-0.997c1.313,-0.664 2.295,-1.705 2.945,-3.122l0.088,0l0,1.506c0,1.269 -0.125,2.435 -0.376,3.498c-0.251,1.063 -0.657,1.971 -1.218,2.724c-0.561,0.753 -1.27,1.344 -2.126,1.772c-0.856,0.428 -1.904,0.642 -3.144,0.642c-0.621,0 -1.27,-0.067 -1.949,-0.199c-0.679,-0.133 -1.307,-0.347 -1.882,-0.643c-0.576,-0.295 -1.063,-0.679 -1.462,-1.151c-0.399,-0.473 -0.613,-1.048 -0.642,-1.727l-3.765,0c0.059,1.24 0.384,2.288 0.975,3.144c0.59,0.856 1.336,1.55 2.236,2.082c0.901,0.531 1.905,0.915 3.012,1.151c1.107,0.236 2.192,0.355 3.255,0.355c3.661,0 6.348,-0.931 8.061,-2.791c1.712,-1.86 2.568,-4.665 2.568,-8.415Zm-10.54,-1.107c-1.24,0 -2.274,-0.258 -3.101,-0.775c-0.826,-0.517 -1.491,-1.196 -1.993,-2.037c-0.502,-0.842 -0.856,-1.779 -1.063,-2.812c-0.206,-1.034 -0.31,-2.067 -0.31,-3.101c0,-1.092 0.126,-2.14 0.377,-3.144c0.251,-1.004 0.649,-1.89 1.196,-2.658c0.546,-0.767 1.247,-1.38 2.103,-1.838c0.857,-0.457 1.89,-0.686 3.101,-0.686c1.181,0 2.185,0.236 3.011,0.709c0.827,0.472 1.499,1.099 2.015,1.882c0.517,0.782 0.894,1.661 1.13,2.635c0.236,0.974 0.354,1.964 0.354,2.967c0,1.063 -0.125,2.126 -0.376,3.189c-0.251,1.063 -0.643,2.015 -1.174,2.857c-0.531,0.841 -1.233,1.52 -2.104,2.037c-0.871,0.517 -1.926,0.775 -3.166,0.775Z" style="fill-rule:nonzero;"/><path d="M328.165,155.974c-0.65,0.384 -1.55,0.576 -2.702,0.576c-0.974,0 -1.749,-0.273 -2.325,-0.82c-0.576,-0.546 -0.864,-1.439 -0.864,-2.679c-1.033,1.24 -2.236,2.133 -3.609,2.679c-1.373,0.547 -2.857,0.82 -4.451,0.82c-1.034,0 -2.015,-0.118 -2.945,-0.355c-0.93,-0.236 -1.735,-0.605 -2.414,-1.107c-0.679,-0.502 -1.218,-1.159 -1.617,-1.971c-0.398,-0.812 -0.598,-1.793 -0.598,-2.945c0,-1.299 0.222,-2.362 0.665,-3.189c0.443,-0.826 1.026,-1.498 1.749,-2.015c0.724,-0.517 1.55,-0.908 2.48,-1.174c0.93,-0.265 1.883,-0.487 2.857,-0.664c1.033,-0.207 2.015,-0.362 2.945,-0.465c0.93,-0.103 1.75,-0.251 2.458,-0.443c0.709,-0.192 1.27,-0.472 1.683,-0.841c0.414,-0.369 0.62,-0.908 0.62,-1.617c0,-0.827 -0.155,-1.491 -0.465,-1.993c-0.31,-0.502 -0.708,-0.886 -1.195,-1.151c-0.488,-0.266 -1.034,-0.443 -1.639,-0.532c-0.605,-0.088 -1.203,-0.133 -1.794,-0.133c-1.594,0 -2.923,0.303 -3.986,0.908c-1.063,0.605 -1.639,1.75 -1.727,3.433l-3.765,0c0.059,-1.418 0.355,-2.613 0.886,-3.588c0.532,-0.974 1.24,-1.764 2.126,-2.369c0.886,-0.606 1.897,-1.041 3.034,-1.307c1.136,-0.266 2.354,-0.398 3.654,-0.398c1.033,0 2.059,0.073 3.078,0.221c1.018,0.148 1.941,0.45 2.768,0.908c0.826,0.458 1.491,1.1 1.993,1.927c0.502,0.826 0.753,1.904 0.753,3.233l0,11.781c0,0.885 0.051,1.535 0.155,1.948c0.103,0.414 0.45,0.62 1.04,0.62c0.325,0 0.709,-0.074 1.152,-0.221l0,2.923Zm-6.112,-11.737c-0.472,0.355 -1.092,0.613 -1.86,0.775c-0.768,0.163 -1.572,0.296 -2.414,0.399c-0.841,0.103 -1.69,0.221 -2.546,0.354c-0.857,0.133 -1.624,0.347 -2.303,0.642c-0.68,0.296 -1.233,0.716 -1.661,1.263c-0.428,0.546 -0.643,1.291 -0.643,2.236c0,0.62 0.126,1.144 0.377,1.573c0.251,0.428 0.576,0.775 0.974,1.04c0.399,0.266 0.864,0.458 1.395,0.576c0.532,0.118 1.093,0.177 1.683,0.177c1.24,0 2.303,-0.17 3.189,-0.509c0.886,-0.34 1.609,-0.768 2.17,-1.284c0.561,-0.517 0.975,-1.078 1.24,-1.683c0.266,-0.606 0.399,-1.174 0.399,-1.706l0,-3.853Z" style="fill-rule:nonzero;"/><path d="M331.664,133.165l0,22.897l3.764,0l0,-12.932c0,-1.033 0.141,-1.986 0.421,-2.857c0.281,-0.871 0.701,-1.631 1.262,-2.28c0.561,-0.65 1.263,-1.152 2.104,-1.506c0.842,-0.355 1.838,-0.532 2.99,-0.532c1.446,0 2.583,0.414 3.41,1.24c0.827,0.827 1.24,1.949 1.24,3.366l0,15.501l3.764,0l0,-15.058c0,-1.24 -0.125,-2.369 -0.376,-3.388c-0.251,-1.019 -0.686,-1.897 -1.307,-2.635c-0.62,-0.738 -1.432,-1.314 -2.435,-1.727c-1.004,-0.414 -2.259,-0.62 -3.765,-0.62c-3.395,0 -5.876,1.387 -7.441,4.163l-0.088,0l0,-3.632l-3.543,0Z" style="fill-rule:nonzero;"/><path d="M359.034,144.813c0,-1.122 0.118,-2.214 0.355,-3.277c0.236,-1.063 0.62,-2.008 1.151,-2.835c0.532,-0.827 1.24,-1.491 2.126,-1.993c0.886,-0.502 1.964,-0.753 3.233,-0.753c1.299,0 2.407,0.244 3.322,0.731c0.915,0.487 1.661,1.129 2.236,1.927c0.576,0.797 0.997,1.72 1.263,2.768c0.265,1.048 0.398,2.133 0.398,3.255c0,1.063 -0.125,2.111 -0.376,3.144c-0.251,1.034 -0.657,1.957 -1.218,2.768c-0.561,0.812 -1.285,1.469 -2.17,1.971c-0.886,0.502 -1.964,0.753 -3.233,0.753c-1.211,0 -2.267,-0.236 -3.167,-0.708c-0.901,-0.473 -1.639,-1.108 -2.215,-1.905c-0.575,-0.797 -1.003,-1.705 -1.284,-2.724c-0.28,-1.018 -0.421,-2.059 -0.421,-3.122Zm17.716,11.249l0,-31.622l-3.765,0l0,11.781l-0.088,0c-0.414,-0.679 -0.923,-1.247 -1.528,-1.705c-0.605,-0.458 -1.248,-0.827 -1.927,-1.107c-0.679,-0.281 -1.358,-0.48 -2.037,-0.598c-0.679,-0.118 -1.314,-0.177 -1.904,-0.177c-1.742,0 -3.27,0.317 -4.584,0.952c-1.314,0.635 -2.407,1.491 -3.278,2.569c-0.871,1.077 -1.52,2.34 -1.948,3.786c-0.429,1.447 -0.643,2.982 -0.643,4.606c0,1.624 0.222,3.16 0.665,4.606c0.443,1.447 1.1,2.717 1.971,3.809c0.871,1.093 1.963,1.964 3.277,2.613c1.314,0.65 2.857,0.975 4.628,0.975c1.595,0 3.056,-0.281 4.385,-0.842c1.328,-0.561 2.303,-1.476 2.923,-2.746l0.088,0l0,3.1l3.765,0Z" style="fill-rule:nonzero;"/><path d="M395.573,124.44l0,31.622l3.986,0l0,-26.307l0.088,0l9.877,26.307l3.587,0l9.877,-26.307l0.088,0l0,26.307l3.986,0l0,-31.622l-5.757,0l-10.01,26.574l-9.965,-26.574l-5.757,0Z" style="fill-rule:nonzero;"/><path d="M449.34,142.421l-13.154,0c0.059,-0.885 0.251,-1.719 0.576,-2.502c0.324,-0.782 0.767,-1.469 1.328,-2.059c0.561,-0.591 1.233,-1.056 2.015,-1.395c0.783,-0.34 1.661,-0.51 2.636,-0.51c0.944,0 1.808,0.17 2.59,0.51c0.783,0.339 1.462,0.797 2.038,1.373c0.575,0.575 1.033,1.262 1.373,2.059c0.339,0.797 0.539,1.639 0.598,2.524Zm3.631,6.378l-3.72,0c-0.325,1.506 -0.996,2.628 -2.015,3.366c-1.019,0.738 -2.325,1.107 -3.92,1.107c-1.24,0 -2.318,-0.206 -3.233,-0.62c-0.915,-0.413 -1.668,-0.967 -2.259,-1.661c-0.59,-0.693 -1.018,-1.491 -1.284,-2.391c-0.266,-0.901 -0.384,-1.853 -0.354,-2.857l17.14,0c0.059,-1.388 -0.067,-2.849 -0.377,-4.384c-0.31,-1.536 -0.871,-2.953 -1.683,-4.252c-0.812,-1.299 -1.89,-2.37 -3.233,-3.211c-1.343,-0.842 -3.034,-1.262 -5.071,-1.262c-1.565,0 -3.004,0.295 -4.318,0.885c-1.314,0.591 -2.451,1.418 -3.41,2.481c-0.96,1.063 -1.706,2.317 -2.237,3.764c-0.532,1.447 -0.797,3.041 -0.797,4.783c0.059,1.742 0.317,3.352 0.775,4.828c0.457,1.476 1.144,2.746 2.059,3.809c0.916,1.063 2.045,1.889 3.388,2.48c1.344,0.59 2.931,0.886 4.761,0.886c2.599,0 4.754,-0.65 6.467,-1.949c1.712,-1.299 2.819,-3.233 3.321,-5.802Z" style="fill-rule:nonzero;"/><path d="M459.969,144.813c0,-1.122 0.118,-2.214 0.354,-3.277c0.236,-1.063 0.62,-2.008 1.152,-2.835c0.531,-0.827 1.24,-1.491 2.126,-1.993c0.885,-0.502 1.963,-0.753 3.233,-0.753c1.299,0 2.406,0.244 3.321,0.731c0.916,0.487 1.661,1.129 2.237,1.927c0.576,0.797 0.997,1.72 1.262,2.768c0.266,1.048 0.399,2.133 0.399,3.255c0,1.063 -0.126,2.111 -0.377,3.144c-0.251,1.034 -0.657,1.957 -1.218,2.768c-0.561,0.812 -1.284,1.469 -2.17,1.971c-0.886,0.502 -1.963,0.753 -3.233,0.753c-1.21,0 -2.266,-0.236 -3.166,-0.708c-0.901,-0.473 -1.639,-1.108 -2.215,-1.905c-0.576,-0.797 -1.004,-1.705 -1.284,-2.724c-0.281,-1.018 -0.421,-2.059 -0.421,-3.122Zm17.716,11.249l0,-31.622l-3.765,0l0,11.781l-0.089,0c-0.413,-0.679 -0.922,-1.247 -1.528,-1.705c-0.605,-0.458 -1.247,-0.827 -1.926,-1.107c-0.679,-0.281 -1.358,-0.48 -2.037,-0.598c-0.68,-0.118 -1.314,-0.177 -1.905,-0.177c-1.742,0 -3.27,0.317 -4.584,0.952c-1.314,0.635 -2.406,1.491 -3.277,2.569c-0.871,1.077 -1.521,2.34 -1.949,3.786c-0.428,1.447 -0.642,2.982 -0.642,4.606c0,1.624 0.221,3.16 0.664,4.606c0.443,1.447 1.1,2.717 1.971,3.809c0.871,1.093 1.964,1.964 3.278,2.613c1.313,0.65 2.856,0.975 4.628,0.975c1.594,0 3.056,-0.281 4.384,-0.842c1.329,-0.561 2.303,-1.476 2.923,-2.746l0.089,0l0,3.1l3.765,0Z" style="fill-rule:nonzero;"/><path d="M487.472,129.046l0,-4.606l-3.764,0l0,4.606l3.764,0Zm-3.764,4.119l0,22.897l3.764,0l0,-22.897l-3.764,0Z" style="fill-rule:nonzero;"/><path d="M513.603,155.974c-0.65,0.384 -1.55,0.576 -2.702,0.576c-0.974,0 -1.749,-0.273 -2.325,-0.82c-0.576,-0.546 -0.864,-1.439 -0.864,-2.679c-1.033,1.24 -2.236,2.133 -3.609,2.679c-1.373,0.547 -2.857,0.82 -4.451,0.82c-1.034,0 -2.015,-0.118 -2.945,-0.355c-0.93,-0.236 -1.735,-0.605 -2.414,-1.107c-0.679,-0.502 -1.218,-1.159 -1.617,-1.971c-0.398,-0.812 -0.598,-1.793 -0.598,-2.945c0,-1.299 0.222,-2.362 0.665,-3.189c0.443,-0.826 1.026,-1.498 1.749,-2.015c0.724,-0.517 1.55,-0.908 2.48,-1.174c0.93,-0.265 1.883,-0.487 2.857,-0.664c1.033,-0.207 2.015,-0.362 2.945,-0.465c0.93,-0.103 1.75,-0.251 2.458,-0.443c0.709,-0.192 1.27,-0.472 1.683,-0.841c0.414,-0.369 0.62,-0.908 0.62,-1.617c0,-0.827 -0.155,-1.491 -0.465,-1.993c-0.31,-0.502 -0.708,-0.886 -1.196,-1.151c-0.487,-0.266 -1.033,-0.443 -1.638,-0.532c-0.606,-0.088 -1.203,-0.133 -1.794,-0.133c-1.594,0 -2.923,0.303 -3.986,0.908c-1.063,0.605 -1.639,1.75 -1.727,3.433l-3.765,0c0.059,-1.418 0.355,-2.613 0.886,-3.588c0.531,-0.974 1.24,-1.764 2.126,-2.369c0.886,-0.606 1.897,-1.041 3.034,-1.307c1.136,-0.266 2.354,-0.398 3.654,-0.398c1.033,0 2.059,0.073 3.078,0.221c1.018,0.148 1.941,0.45 2.768,0.908c0.826,0.458 1.491,1.1 1.993,1.927c0.502,0.826 0.753,1.904 0.753,3.233l0,11.781c0,0.885 0.051,1.535 0.155,1.948c0.103,0.414 0.45,0.62 1.04,0.62c0.325,0 0.709,-0.074 1.152,-0.221l0,2.923Zm-6.112,-11.737c-0.472,0.355 -1.092,0.613 -1.86,0.775c-0.768,0.163 -1.572,0.296 -2.414,0.399c-0.841,0.103 -1.69,0.221 -2.546,0.354c-0.857,0.133 -1.624,0.347 -2.304,0.642c-0.679,0.296 -1.232,0.716 -1.66,1.263c-0.428,0.546 -0.643,1.291 -0.643,2.236c0,0.62 0.126,1.144 0.377,1.573c0.251,0.428 0.576,0.775 0.974,1.04c0.399,0.266 0.864,0.458 1.395,0.576c0.532,0.118 1.093,0.177 1.683,0.177c1.24,0 2.303,-0.17 3.189,-0.509c0.886,-0.34 1.609,-0.768 2.17,-1.284c0.561,-0.517 0.975,-1.078 1.24,-1.683c0.266,-0.606 0.399,-1.174 0.399,-1.706l0,-3.853Z" style="fill-rule:nonzero;"/><path d="M552.267,133.962l4.208,0c-0.237,-1.683 -0.739,-3.166 -1.506,-4.451c-0.768,-1.284 -1.727,-2.354 -2.879,-3.211c-1.151,-0.856 -2.465,-1.506 -3.942,-1.948c-1.476,-0.443 -3.041,-0.665 -4.694,-0.665c-2.421,0 -4.569,0.436 -6.444,1.307c-1.875,0.871 -3.44,2.059 -4.695,3.565c-1.255,1.506 -2.207,3.27 -2.857,5.293c-0.649,2.022 -0.974,4.185 -0.974,6.488c0,2.303 0.303,4.458 0.908,6.466c0.605,2.008 1.513,3.75 2.724,5.226c1.21,1.476 2.731,2.635 4.561,3.477c1.831,0.841 3.972,1.262 6.422,1.262c4.045,0 7.234,-1.107 9.567,-3.322c2.332,-2.214 3.705,-5.314 4.119,-9.3l-4.208,0c-0.088,1.299 -0.354,2.509 -0.797,3.631c-0.443,1.122 -1.056,2.089 -1.838,2.901c-0.782,0.812 -1.712,1.447 -2.79,1.905c-1.078,0.457 -2.311,0.686 -3.698,0.686c-1.89,0 -3.514,-0.354 -4.872,-1.063c-1.358,-0.708 -2.473,-1.661 -3.344,-2.856c-0.871,-1.196 -1.513,-2.599 -1.927,-4.208c-0.413,-1.609 -0.62,-3.314 -0.62,-5.115c0,-1.654 0.207,-3.248 0.62,-4.783c0.414,-1.536 1.056,-2.901 1.927,-4.097c0.871,-1.196 1.978,-2.148 3.322,-2.857c1.343,-0.708 2.96,-1.063 4.849,-1.063c2.215,0 4.127,0.561 5.736,1.683c1.609,1.122 2.65,2.805 3.122,5.049Z" style="fill-rule:nonzero;"/><path d="M577.29,142.421l-13.153,0c0.059,-0.885 0.251,-1.719 0.575,-2.502c0.325,-0.782 0.768,-1.469 1.329,-2.059c0.561,-0.591 1.233,-1.056 2.015,-1.395c0.783,-0.34 1.661,-0.51 2.635,-0.51c0.945,0 1.809,0.17 2.591,0.51c0.783,0.339 1.462,0.797 2.038,1.373c0.575,0.575 1.033,1.262 1.373,2.059c0.339,0.797 0.538,1.639 0.597,2.524Zm3.632,6.378l-3.72,0c-0.325,1.506 -0.997,2.628 -2.015,3.366c-1.019,0.738 -2.325,1.107 -3.92,1.107c-1.24,0 -2.318,-0.206 -3.233,-0.62c-0.915,-0.413 -1.668,-0.967 -2.259,-1.661c-0.59,-0.693 -1.018,-1.491 -1.284,-2.391c-0.266,-0.901 -0.384,-1.853 -0.354,-2.857l17.139,0c0.06,-1.388 -0.066,-2.849 -0.376,-4.384c-0.31,-1.536 -0.871,-2.953 -1.683,-4.252c-0.812,-1.299 -1.89,-2.37 -3.233,-3.211c-1.343,-0.842 -3.034,-1.262 -5.071,-1.262c-1.565,0 -3.004,0.295 -4.318,0.885c-1.314,0.591 -2.451,1.418 -3.411,2.481c-0.959,1.063 -1.705,2.317 -2.236,3.764c-0.532,1.447 -0.797,3.041 -0.797,4.783c0.059,1.742 0.317,3.352 0.775,4.828c0.457,1.476 1.144,2.746 2.059,3.809c0.915,1.063 2.045,1.889 3.388,2.48c1.344,0.59 2.931,0.886 4.761,0.886c2.599,0 4.754,-0.65 6.466,-1.949c1.713,-1.299 2.82,-3.233 3.322,-5.802Z" style="fill-rule:nonzero;"/><path d="M585.174,133.165l0,22.897l3.764,0l0,-12.932c0,-1.033 0.141,-1.986 0.421,-2.857c0.281,-0.871 0.701,-1.631 1.262,-2.28c0.561,-0.65 1.263,-1.152 2.104,-1.506c0.842,-0.355 1.838,-0.532 2.99,-0.532c1.446,0 2.583,0.414 3.41,1.24c0.827,0.827 1.24,1.949 1.24,3.366l0,15.501l3.765,0l0,-15.058c0,-1.24 -0.126,-2.369 -0.377,-3.388c-0.251,-1.019 -0.686,-1.897 -1.306,-2.635c-0.62,-0.738 -1.432,-1.314 -2.436,-1.727c-1.004,-0.414 -2.259,-0.62 -3.765,-0.62c-3.395,0 -5.876,1.387 -7.44,4.163l-0.089,0l0,-3.632l-3.543,0Z" style="fill-rule:nonzero;"/><path d="M615.025,133.165l0,-6.865l-3.765,0l0,6.865l-3.897,0l0,3.322l3.897,0l0,14.571c0,1.063 0.103,1.919 0.31,2.569c0.207,0.649 0.524,1.151 0.952,1.505c0.428,0.355 0.989,0.598 1.683,0.731c0.694,0.133 1.528,0.199 2.503,0.199l2.878,0l0,-3.321l-1.727,0c-0.59,0 -1.07,-0.022 -1.439,-0.067c-0.369,-0.044 -0.657,-0.14 -0.864,-0.288c-0.207,-0.147 -0.347,-0.354 -0.421,-0.62c-0.073,-0.265 -0.11,-0.62 -0.11,-1.062l0,-14.217l4.561,0l0,-3.322l-4.561,0Z" style="fill-rule:nonzero;"/><path d="M623.617,133.165l0,22.897l3.764,0l0,-10.186c0,-1.476 0.148,-2.783 0.443,-3.92c0.295,-1.136 0.768,-2.103 1.417,-2.9c0.65,-0.798 1.506,-1.403 2.569,-1.816c1.063,-0.414 2.348,-0.62 3.853,-0.62l0,-3.986c-2.037,-0.059 -3.72,0.354 -5.049,1.24c-1.328,0.885 -2.45,2.258 -3.366,4.119l-0.088,0l0,-4.828l-3.543,0Z" style="fill-rule:nonzero;"/><path d="M653.6,142.421l-13.153,0c0.059,-0.885 0.251,-1.719 0.575,-2.502c0.325,-0.782 0.768,-1.469 1.329,-2.059c0.561,-0.591 1.233,-1.056 2.015,-1.395c0.783,-0.34 1.661,-0.51 2.635,-0.51c0.945,0 1.809,0.17 2.591,0.51c0.783,0.339 1.462,0.797 2.038,1.373c0.575,0.575 1.033,1.262 1.372,2.059c0.34,0.797 0.539,1.639 0.598,2.524Zm3.632,6.378l-3.72,0c-0.325,1.506 -0.997,2.628 -2.015,3.366c-1.019,0.738 -2.326,1.107 -3.92,1.107c-1.24,0 -2.318,-0.206 -3.233,-0.62c-0.915,-0.413 -1.668,-0.967 -2.259,-1.661c-0.59,-0.693 -1.018,-1.491 -1.284,-2.391c-0.266,-0.901 -0.384,-1.853 -0.354,-2.857l17.139,0c0.059,-1.388 -0.066,-2.849 -0.376,-4.384c-0.31,-1.536 -0.871,-2.953 -1.683,-4.252c-0.812,-1.299 -1.89,-2.37 -3.233,-3.211c-1.344,-0.842 -3.034,-1.262 -5.071,-1.262c-1.565,0 -3.005,0.295 -4.318,0.885c-1.314,0.591 -2.451,1.418 -3.411,2.481c-0.959,1.063 -1.705,2.317 -2.236,3.764c-0.532,1.447 -0.797,3.041 -0.797,4.783c0.059,1.742 0.317,3.352 0.775,4.828c0.457,1.476 1.144,2.746 2.059,3.809c0.915,1.063 2.045,1.889 3.388,2.48c1.344,0.59 2.931,0.886 4.761,0.886c2.598,0 4.754,-0.65 6.466,-1.949c1.713,-1.299 2.82,-3.233 3.322,-5.802Z" style="fill-rule:nonzero;"/></g><g><path id="shldbtm" d="M3.357,30.317l0,13.57c1.346,16.989 16.799,29.311 27.683,29.582c13.434,-0.296 26.786,-15.334 27.682,-29.582l0,-13.57l-55.365,0Z" style="fill:url(#_Linear1);fill-rule:nonzero;stroke:#000;stroke-width:0.27px;"/><path d="M20.346,69.507l21.821,0" style="fill-rule:nonzero;stroke:#fff;stroke-width:0.81px;"/><path d="M15.298,65.978l31.483,0" style="fill-rule:nonzero;stroke:#fff;stroke-width:0.81px;"/><path d="M11.77,62.45l38.539,0" style="fill-rule:nonzero;stroke:#fff;stroke-width:0.81px;"/><path d="M9.056,58.922l43.695,0" style="fill-rule:nonzero;stroke:#fff;stroke-width:0.81px;"/><path d="M7.157,55.394l47.765,0" style="fill-rule:nonzero;stroke:#fff;stroke-width:0.81px;"/><path d="M5.8,51.866l50.479,0" style="fill-rule:nonzero;stroke:#fff;stroke-width:0.81px;"/><path d="M4.714,48.338l52.651,0" style="fill-rule:nonzero;stroke:#fff;stroke-width:0.81px;"/><path d="M4.171,44.809l53.737,0" style="fill-rule:nonzero;stroke:#fff;stroke-width:0.81px;"/><path d="M4.171,41.281l53.737,0" style="fill-rule:nonzero;stroke:#fff;stroke-width:0.81px;"/><path d="M4.171,37.753l53.737,0" style="fill-rule:nonzero;stroke:#fff;stroke-width:0.81px;"/><path d="M4.171,34.225l53.737,0" style="fill-rule:nonzero;stroke:#fff;stroke-width:0.81px;"/><rect x="3.357" y="5.62" width="55.365" height="24.969" style="fill:#fff;stroke:#000;stroke-width:1.63px;"/><path d="M7.157,11.59l2.985,-1.899l2.171,1.357l1.357,2.985l3.528,1.9l4.071,0l-1.9,1.9l3.257,1.357l-2.985,1.357l3.528,0.542l-2.443,1.357l0,3.529l-5.156,-4.886l0.814,4.886l-2.443,-1.086l-2.442,0.814l0.814,-2.714l-2.442,0.272l0.814,-2.172l-1.9,-8.142l-1.628,-1.357Z" style="fill:#c63527;fill-rule:nonzero;"/><path d="M23.983,20.818c-0.863,0.434 -3.257,-0.271 -3.257,-0.299c1.683,-0.38 2.497,-0.624 3.257,-1.411c-1.411,0.065 -2.985,-0.488 -4.071,-1.085c0.38,-0.272 1.846,-1.14 2.307,-2.633c-0.651,0.271 -4.885,0.543 -5.971,0.049c-0.76,-0.814 -1.139,-1.439 -2.985,-2.416c-0.787,-4.885 -3.8,-3.528 -4.885,-2.524c-0.543,0.625 -1.791,1.195 -1.791,1.195c1.981,1.031 2.008,1.899 2.117,2.714c-0.133,2.551 0.678,4.342 1.574,5.428c0.252,0.678 0.434,1.981 -0.923,3.528c1.085,0.152 2.008,0 2.47,-0.082c-0.272,1.167 -0.815,2.009 -1.303,2.633c0.733,0.163 2.714,-0.299 3.528,-1.004c0.76,0.515 2.008,1.628 3.8,1.519c-1.846,-1.465 -1.737,-3.799 -1.574,-4.342c1.384,1.031 3.528,3.257 4.613,5.157c0.462,-2.307 0.353,-2.714 0.193,-4.343c1.194,-0.298 2.605,-1.438 2.904,-2.089l-0.003,0.005Zm-3.257,-4.614c-0.977,1.004 -1.737,1.221 -1.981,1.276c-0.624,-0.353 -1.248,-0.787 -1.764,-1.249c1.303,0.19 1.9,0.272 3.745,-0.03l0,0.003Zm-10.313,6.785c0.272,-0.516 0.787,-1.33 0.76,-2.28c0.299,0.209 0.57,0.353 0.787,0.435c0.082,0.597 0.055,1.112 0,1.601c-0.624,0.244 -1.112,0.244 -1.547,0.244Zm8.685,-0.977c0.434,0.706 1.466,1.249 1.248,3.528c-1.085,-1.9 -4.07,-4.613 -4.885,-4.885c-0.461,1.276 0.435,4.342 0.706,4.885c-0.977,-0.488 -1.574,-0.922 -1.954,-2.714c-0.407,0.923 -0.57,2.117 -2.47,2.714c0.57,-1.031 1.357,-1.845 1.303,-4.885c-1.059,-0.624 -3.257,-0.38 -3.528,-6.242c-0.055,-1.466 -0.679,-1.873 -1.764,-2.633c0,0 0.841,-0.597 1.465,-1.085c0.787,-0.624 3.257,-1.004 3.528,2.985c1.9,1.086 1.9,1.439 3.257,2.714c1.384,1.33 4.614,2.986 5.971,2.986c-1.249,0.434 -2.714,0.461 -3.8,0.461c0.435,-0.38 0.652,-0.597 0.787,-0.977c-0.814,0.543 -2.469,1.303 -4.342,0.353c0.814,0.038 1.628,0.108 2.443,-0.842c-0.95,0.299 -3.257,1.032 -5.157,-1.058c-1.601,-1.873 0.516,-2.171 1.574,-1.411c1.086,0.787 1.547,1.357 1.737,2.117c0.326,-1.14 -1.33,-3.8 -3.528,-3.257c-2.09,0.461 -0.19,3.799 1.221,4.614c0.543,0.271 1.846,1.438 5.971,1.411c0.678,0.325 1.411,0.733 2.985,0.868c-0.488,0.896 -2.768,0.353 -2.768,0.353l0,0Z" style="fill-rule:nonzero;"/><path d="M9.246,11.238c0.163,0.108 0.543,0.325 0.95,0.271c-0.325,0.271 -0.923,0.054 -1.194,-0.109l-0.081,0.082c-0.136,0.081 -0.245,0.108 -0.261,0.108c-0.038,0.038 -0.038,0.109 -0.038,0.109c0.163,-0.071 0.57,0.19 0.597,0.19c0.597,0.353 1.086,0.033 1.276,-0.054c0.19,-0.082 0.298,-0.136 0.515,-0.299c-0.57,-0.733 -1.221,-0.624 -1.764,-0.298l0,0Z" style="fill-rule:nonzero;"/><path d="M23.169,11.59l2.985,-1.899l2.172,1.357l1.357,2.985l3.528,1.9l4.071,0l-1.9,1.9l3.257,1.357l-2.986,1.357l3.528,0.542l-2.442,1.357l0,3.529l-5.157,-4.886l0.815,4.886l-2.443,-1.086l-2.443,0.814l0.815,-2.714l-2.443,0.272l0.814,-2.172l-1.9,-8.142l-1.628,-1.357Z" style="fill:#c63527;fill-rule:nonzero;"/><path d="M39.996,20.818c-0.863,0.434 -3.257,-0.271 -3.257,-0.299c1.683,-0.38 2.497,-0.624 3.257,-1.411c-1.412,0.065 -2.986,-0.488 -4.071,-1.085c0.38,-0.272 1.845,-1.14 2.307,-2.633c-0.652,0.271 -4.886,0.543 -5.971,0.049c-0.76,-0.814 -1.14,-1.439 -2.986,-2.416c-0.787,-4.885 -3.799,-3.528 -4.885,-2.524c-0.543,0.625 -1.791,1.195 -1.791,1.195c1.981,1.031 2.008,1.899 2.117,2.714c-0.133,2.551 0.678,4.342 1.574,5.428c0.252,0.678 0.434,1.981 -0.923,3.528c1.086,0.152 2.009,0 2.47,-0.082c-0.271,1.167 -0.814,2.009 -1.303,2.633c0.733,0.163 2.714,-0.299 3.528,-1.004c0.76,0.515 2.009,1.628 3.8,1.519c-1.845,-1.465 -1.737,-3.799 -1.574,-4.342c1.384,1.031 3.528,3.257 4.614,5.157c0.461,-2.307 0.353,-2.714 0.192,-4.343c1.195,-0.298 2.606,-1.438 2.904,-2.089l-0.002,0.005Zm-3.257,-4.614c-0.977,1.004 -1.737,1.221 -1.981,1.276c-0.625,-0.353 -1.249,-0.787 -1.764,-1.249c1.302,0.19 1.899,0.272 3.745,-0.03l0,0.003Zm-10.313,6.785c0.271,-0.516 0.787,-1.33 0.76,-2.28c0.298,0.209 0.57,0.353 0.787,0.435c0.081,0.597 0.054,1.112 0,1.601c-0.624,0.244 -1.113,0.244 -1.547,0.244Zm8.684,-0.977c0.435,0.706 1.466,1.249 1.249,3.528c-1.086,-1.9 -4.071,-4.613 -4.885,-4.885c-0.462,1.276 0.434,4.342 0.705,4.885c-0.977,-0.488 -1.574,-0.922 -1.954,-2.714c-0.407,0.923 -0.57,2.117 -2.469,2.714c0.57,-1.031 1.357,-1.845 1.302,-4.885c-1.058,-0.624 -3.256,-0.38 -3.528,-6.242c-0.054,-1.466 -0.678,-1.873 -1.764,-2.633c0,0 0.841,-0.597 1.466,-1.085c0.787,-0.624 3.256,-1.004 3.528,2.985c1.9,1.086 1.9,1.439 3.257,2.714c1.384,1.33 4.613,2.986 5.97,2.986c-1.248,0.434 -2.714,0.461 -3.799,0.461c0.434,-0.38 0.651,-0.597 0.787,-0.977c-0.814,0.543 -2.47,1.303 -4.343,0.353c0.815,0.038 1.629,0.108 2.443,-0.842c-0.95,0.299 -3.257,1.032 -5.157,-1.058c-1.601,-1.873 0.516,-2.171 1.575,-1.411c1.085,0.787 1.547,1.357 1.737,2.117c0.325,-1.14 -1.33,-3.8 -3.529,-3.257c-2.089,0.461 -0.19,3.799 1.222,4.614c0.542,0.271 1.845,1.438 5.97,1.411c0.679,0.325 1.412,0.733 2.986,0.868c-0.489,0.896 -2.769,0.353 -2.769,0.353l0,0Z" style="fill-rule:nonzero;"/><path d="M25.259,11.238c0.163,0.108 0.543,0.325 0.95,0.271c-0.326,0.271 -0.923,0.054 -1.194,-0.109l-0.082,0.082c-0.136,0.081 -0.244,0.108 -0.26,0.108c-0.038,0.038 -0.038,0.109 -0.038,0.109c0.162,-0.071 0.569,0.19 0.597,0.19c0.597,0.353 1.085,0.033 1.275,-0.054c0.19,-0.082 0.299,-0.136 0.516,-0.299c-0.57,-0.733 -1.221,-0.624 -1.764,-0.298l0,0Z" style="fill-rule:nonzero;"/><path d="M39.181,11.59l2.986,-1.899l2.171,1.357l1.357,2.985l3.528,1.9l4.071,0l-1.9,1.9l3.257,1.357l-2.985,1.357l3.528,0.542l-2.443,1.357l0,3.529l-5.156,-4.886l0.814,4.886l-2.443,-1.086l-2.442,0.814l0.814,-2.714l-2.443,0.272l0.815,-2.172l-1.9,-8.142l-1.629,-1.357Z" style="fill:#c63527;fill-rule:nonzero;"/><path d="M56.008,20.818c-0.863,0.434 -3.257,-0.271 -3.257,-0.299c1.683,-0.38 2.497,-0.624 3.257,-1.411c-1.411,0.065 -2.985,-0.488 -4.071,-1.085c0.38,-0.272 1.846,-1.14 2.307,-2.633c-0.651,0.271 -4.885,0.543 -5.971,0.049c-0.76,-0.814 -1.14,-1.439 -2.985,-2.416c-0.787,-4.885 -3.8,-3.528 -4.885,-2.524c-0.543,0.625 -1.791,1.195 -1.791,1.195c1.981,1.031 2.008,1.899 2.116,2.714c-0.133,2.551 0.679,4.342 1.575,5.428c0.252,0.678 0.434,1.981 -0.923,3.528c1.085,0.152 2.008,0 2.469,-0.082c-0.271,1.167 -0.814,2.009 -1.302,2.633c0.733,0.163 2.714,-0.299 3.528,-1.004c0.76,0.515 2.008,1.628 3.799,1.519c-1.845,-1.465 -1.736,-3.799 -1.574,-4.342c1.385,1.031 3.529,3.257 4.614,5.157c0.462,-2.307 0.353,-2.714 0.193,-4.343c1.194,-0.298 2.605,-1.438 2.904,-2.089l-0.003,0.005Zm-3.257,-4.614c-0.977,1.004 -1.737,1.221 -1.981,1.276c-0.624,-0.353 -1.248,-0.787 -1.764,-1.249c1.303,0.19 1.9,0.272 3.745,-0.03l0,0.003Zm-10.313,6.785c0.272,-0.516 0.787,-1.33 0.76,-2.28c0.299,0.209 0.57,0.353 0.787,0.435c0.082,0.597 0.054,1.112 0,1.601c-0.624,0.244 -1.113,0.244 -1.547,0.244Zm8.685,-0.977c0.434,0.706 1.465,1.249 1.248,3.528c-1.085,-1.9 -4.071,-4.613 -4.885,-4.885c-0.461,1.276 0.434,4.342 0.706,4.885c-0.977,-0.488 -1.574,-0.922 -1.954,-2.714c-0.407,0.923 -0.57,2.117 -2.47,2.714c0.57,-1.031 1.357,-1.845 1.303,-4.885c-1.059,-0.624 -3.257,-0.38 -3.528,-6.242c-0.055,-1.466 -0.679,-1.873 -1.764,-2.633c0,0 0.841,-0.597 1.465,-1.085c0.787,-0.624 3.257,-1.004 3.528,2.985c1.9,1.086 1.9,1.439 3.257,2.714c1.384,1.33 4.614,2.986 5.971,2.986c-1.249,0.434 -2.714,0.461 -3.8,0.461c0.434,-0.38 0.652,-0.597 0.787,-0.977c-0.814,0.543 -2.469,1.303 -4.342,0.353c0.814,0.038 1.628,0.108 2.442,-0.842c-0.949,0.299 -3.256,1.032 -5.156,-1.058c-1.601,-1.873 0.516,-2.171 1.574,-1.411c1.086,0.787 1.547,1.357 1.737,2.117c0.326,-1.14 -1.33,-3.8 -3.528,-3.257c-2.09,0.461 -0.19,3.799 1.221,4.614c0.543,0.271 1.846,1.438 5.971,1.411c0.678,0.325 1.411,0.733 2.985,0.868c-0.488,0.896 -2.768,0.353 -2.768,0.353l0,0Z" style="fill-rule:nonzero;"/><path d="M41.271,11.238c0.163,0.108 0.543,0.325 0.95,0.271c-0.326,0.271 -0.923,0.054 -1.194,-0.109l-0.081,0.082c-0.136,0.081 -0.245,0.108 -0.261,0.108c-0.038,0.038 -0.038,0.109 -0.038,0.109c0.163,-0.071 0.57,0.19 0.597,0.19c0.597,0.353 1.086,0.033 1.276,-0.054c0.19,-0.082 0.298,-0.136 0.515,-0.299c-0.57,-0.733 -1.221,-0.624 -1.764,-0.298l0,0Z" style="fill-rule:nonzero;"/><path id="shldbtm1" serif:id="shldbtm" d="M3.357,30.317l0,13.57c1.346,16.989 16.799,29.311 27.683,29.582c13.434,-0.296 26.786,-15.334 27.682,-29.582l0,-13.57l-55.365,0Z" style="fill:none;stroke:#000;stroke-width:1.63px;"/><path id="pgbg" d="M11.607,40.413l1.575,18.889l13.325,-0.434l4.668,2.47l0,-6.704l-1.954,-2.795l-10.204,3.066l-2.036,0l-1.927,-18.102l-3.447,3.61Z" style="fill:#f5aa1c;fill-rule:nonzero;"/><path id="pgbg1" serif:id="pgbg" d="M50.689,40.413l-1.574,18.889l-13.326,-0.434l-4.668,2.47l0,-6.704l1.954,-2.795l10.205,3.066l2.035,0l1.927,-18.102l3.447,3.61Z" style="fill:#f5aa1c;fill-rule:nonzero;"/><path id="bkbg" d="M31.148,36.07l-3.989,-2.795l-7.572,3.583l-4.804,-0.245l1.927,18.157l1.465,0.353l10.286,-3.149l2.361,1.629l0.326,-17.533Z" style="fill:#fff;fill-rule:nonzero;"/><path id="bkbg1" serif:id="bkbg" d="M31.148,36.07l3.99,-2.795l7.572,3.583l4.803,-0.245l-1.927,18.157l-1.465,0.353l-10.286,-3.149l-2.361,1.629l-0.326,-17.533Z" style="fill:#fff;fill-rule:nonzero;"/><path id="bkbg2" serif:id="bkbg" d="M31.148,36.07l3.99,-2.795l7.572,3.583l4.803,-0.245l-1.927,18.157l-1.465,0.353l-10.286,-3.149l-2.361,1.629l-0.326,-17.533Z" style="fill:#fff;fill-rule:nonzero;"/><path id="bnd" d="M14.539,35.473c-0.163,1.954 -1.954,3.691 -2.416,4.18l-1.275,0l1.954,20.436c0.38,-0.38 17.776,1.466 18.346,-3.609l0,-1.357c-3.202,5.4 -17.424,4.016 -17.424,4.016l-1.547,-18.292c1.005,-0.868 1.9,-1.981 2.579,-3.365l-0.217,-2.009Z" style="fill-rule:nonzero;"/><path d="M27.538,59.221c0.896,2.388 6.568,2.388 7.627,0" style="fill:#f5aa1c;fill-rule:nonzero;stroke:#000;stroke-width:1.09px;"/><path d="M14.539,35.473c5.617,4.587 10.855,-7.979 16.609,-0.759c4.098,-7.165 13.353,5.237 16.61,0.787l-0.489,1.275c-5.021,3.881 -11.399,-6.161 -14.33,-1.438l-1.791,19.432l-1.791,-19.432c-2.578,-4.56 -8.929,5.129 -13.977,1.492l-0.841,-1.357Z" style="fill-rule:nonzero;"/><path d="M14.539,35.473l2.116,19.541c3.99,1.601 11.806,-5.509 14.493,-0.244c3.257,-5.591 11.046,2.144 14.818,0.244l1.792,-19.513l-0.516,1.248l-1.818,17.994c-4.913,0.651 -10.666,-7.138 -14.276,-1.873c-2.985,-5.021 -8.956,2.171 -13.95,1.873l-1.791,-17.94l-0.868,-1.33Z" style="fill-rule:nonzero;"/><path id="bnd1" serif:id="bnd" d="M47.758,35.473c0.162,1.954 1.954,3.691 2.415,4.18l1.276,0l-1.954,20.436c-0.38,-0.38 -17.777,1.466 -18.347,-3.609l0,-1.357c3.203,5.4 17.424,4.016 17.424,4.016l1.547,-18.292c-1.004,-0.868 -1.9,-1.981 -2.579,-3.365l0.218,-2.009Z" style="fill-rule:nonzero;"/><path id="pgs" d="M13.589,59.275l-0.787,-17.125l1.167,8.847l-0.38,-7.545l1.167,8.034l-0.489,-7.355l1.33,8.63l-0.57,-8.331l1.547,9.58l0.244,1.058c3.149,2.009 8.821,-2.904 11.453,-1.737c-1.302,0.163 -2.524,0.055 -6.622,2.389c1.547,-0.245 3.583,-1.412 4.668,-1.357c-3.555,1.791 -4.451,2.117 -4.858,2.198l4.668,-0.543c-3.039,1.384 -4.206,1.303 -5.835,1.629c1.466,0.081 4.153,-0.245 6.921,-0.706c-1.059,0.624 -2.606,1.194 -5.292,1.465c0,0 2.415,0.38 6.947,-1.411c-4.016,3.176 -15.252,2.334 -15.252,2.334l-0.027,-0.054Z" style="fill-rule:nonzero;"/><path id="pgs1" serif:id="pgs" d="M48.707,59.275l0.788,-17.125l-1.167,8.847l0.379,-7.545l-1.167,8.034l0.489,-7.355l-1.33,8.63l0.57,-8.331l-1.547,9.58l-0.244,1.058c-3.148,2.009 -8.821,-2.904 -11.453,-1.737c1.303,0.163 2.524,0.055 6.622,2.389c-1.547,-0.245 -3.582,-1.412 -4.668,-1.357c3.555,1.791 4.451,2.117 4.858,2.198l-4.668,-0.543c3.04,1.384 4.207,1.303 5.835,1.629c-1.466,0.081 -4.152,-0.245 -6.921,-0.706c1.059,0.624 2.606,1.194 5.293,1.465c0,0 -2.416,0.38 -6.948,-1.411c4.016,3.176 15.252,2.334 15.252,2.334l0.027,-0.054Z" style="fill-rule:nonzero;"/><g id="lp-dashes"><path d="M16.818,38.16c-0.217,-0.054 -0.461,-0.163 -0.678,-0.244l0.027,0.326c0.217,0.081 0.434,0.163 0.678,0.244l-0.027,-0.299l0,-0.027Z" style="fill-rule:nonzero;"/><path d="M17.958,38.676l-0.027,-0.326c-0.19,0 -0.38,-0.027 -0.57,-0.054l0.027,0.298l0.57,0.082Z" style="fill-rule:nonzero;"/><path d="M19.369,38.649l-0.027,-0.353c-0.298,0.054 -0.57,0.081 -0.868,0.081l0.027,0.326c0.271,0 0.57,0 0.868,-0.054Z" style="fill-rule:nonzero;"/><path d="M21.513,37.916l-0.027,-0.407c-0.488,0.298 -1.031,0.516 -1.601,0.651l0.027,0.38c0.516,-0.135 1.059,-0.325 1.601,-0.624l0,0Z" style="fill-rule:nonzero;"/><path d="M23.603,36.803l-0.054,-0.624c-0.489,0.271 -0.977,0.57 -1.466,0.923c-0.027,0.027 -0.054,0.027 -0.108,0.054l0.054,0.461c0.543,-0.325 1.059,-0.624 1.574,-0.841l0,0.027Z" style="fill-rule:nonzero;"/><path d="M26.073,36.043l-0.081,-0.732c-0.625,0.135 -1.276,0.325 -1.955,0.651l0.055,0.624c0.678,-0.271 1.33,-0.434 1.954,-0.543l0.027,0Z" style="fill-rule:nonzero;"/></g><path d="M26.534,35.202c0.815,-0.081 2.09,0 2.85,0.19l0.109,1.004c-0.598,-0.38 -2.09,-0.488 -2.877,-0.434l-0.082,-0.76Z" style="fill-rule:nonzero;"/><path d="M26.724,37.183c0.814,-0.108 2.199,0.082 2.85,0.299l0.081,0.895c-0.76,-0.434 -2.008,-0.488 -2.849,-0.461l-0.082,-0.733Z" style="fill-rule:nonzero;"/><g id="lp-dashes1" serif:id="lp-dashes"><path d="M17.09,40.06c-0.217,-0.054 -0.462,-0.163 -0.679,-0.244l0.027,0.325c0.217,0.082 0.435,0.163 0.679,0.245l-0.027,-0.299l0,-0.027Z" style="fill-rule:nonzero;"/><path d="M18.23,40.576l-0.028,-0.326c-0.19,0 -0.38,-0.027 -0.57,-0.054l0.028,0.298l0.57,0.082Z" style="fill-rule:nonzero;"/><path d="M19.641,40.549l-0.027,-0.353c-0.299,0.054 -0.57,0.081 -0.869,0.081l0.027,0.326c0.272,0 0.57,0 0.869,-0.054Z" style="fill-rule:nonzero;"/><path d="M21.785,39.816l-0.027,-0.407c-0.489,0.298 -1.032,0.515 -1.602,0.651l0.028,0.38c0.515,-0.136 1.058,-0.326 1.601,-0.624l0,0Z" style="fill-rule:nonzero;"/><path d="M23.875,38.703l-0.055,-0.624c-0.488,0.271 -0.977,0.57 -1.465,0.923c-0.027,0.027 -0.054,0.027 -0.109,0.054l0.055,0.461c0.542,-0.325 1.058,-0.624 1.574,-0.841l0,0.027Z" style="fill-rule:nonzero;"/><path d="M26.344,37.943l-0.081,-0.733c-0.624,0.136 -1.276,0.326 -1.954,0.652l0.054,0.624c0.679,-0.271 1.33,-0.434 1.954,-0.543l0.027,0Z" style="fill-rule:nonzero;"/></g><path d="M26.914,39.137l0.082,0.733c1.302,-0.054 2.307,0.326 2.849,0.597l-0.108,-1.004c-0.652,-0.19 -1.71,-0.461 -2.796,-0.353l-0.027,0.027Z" style="fill-rule:nonzero;"/><g id="lp-dashes2" serif:id="lp-dashes"><path d="M17.361,42.096c-0.217,-0.055 -0.461,-0.163 -0.678,-0.245l0.027,0.326c0.217,0.081 0.434,0.163 0.678,0.244l-0.027,-0.298l0,-0.027Z" style="fill-rule:nonzero;"/><path d="M18.501,42.611l-0.027,-0.326c-0.19,0 -0.38,-0.027 -0.57,-0.054l0.027,0.299l0.57,0.081Z" style="fill-rule:nonzero;"/><path d="M19.912,42.584l-0.027,-0.353c-0.298,0.054 -0.57,0.082 -0.868,0.082l0.027,0.325c0.271,0 0.57,0 0.868,-0.054Z" style="fill-rule:nonzero;"/><path d="M22.056,41.851l-0.027,-0.407c-0.488,0.299 -1.031,0.516 -1.601,0.652l0.027,0.379c0.516,-0.135 1.058,-0.325 1.601,-0.624l0,0Z" style="fill-rule:nonzero;"/><path d="M24.146,40.739l-0.054,-0.625c-0.489,0.272 -0.977,0.57 -1.466,0.923c-0.027,0.027 -0.054,0.027 -0.108,0.054l0.054,0.462c0.543,-0.326 1.058,-0.625 1.574,-0.842l0,0.028Z" style="fill-rule:nonzero;"/><path d="M26.616,39.979l-0.082,-0.733c-0.624,0.136 -1.275,0.326 -1.954,0.651l0.055,0.624c0.678,-0.271 1.329,-0.434 1.954,-0.542l0.027,0Z" style="fill-rule:nonzero;"/></g><path d="M27.104,41.118l0.082,0.706c1.492,0.027 2.334,0.299 2.849,0.706l-0.054,-1.004c-0.678,-0.299 -1.845,-0.543 -2.877,-0.408Z" style="fill-rule:nonzero;"/><g id="lp-dashes3" serif:id="lp-dashes"><path d="M17.497,43.995c-0.217,-0.054 -0.462,-0.163 -0.679,-0.244l0.027,0.326c0.218,0.081 0.435,0.163 0.679,0.244l-0.027,-0.299l0,-0.027Z" style="fill-rule:nonzero;"/><path d="M18.637,44.511l-0.027,-0.326c-0.19,0 -0.38,-0.027 -0.57,-0.054l0.027,0.299l0.57,0.081Z" style="fill-rule:nonzero;"/><path d="M20.048,44.484l-0.027,-0.353c-0.299,0.054 -0.57,0.081 -0.869,0.081l0.027,0.326c0.272,0 0.57,0 0.869,-0.054Z" style="fill-rule:nonzero;"/><path d="M22.192,43.751l-0.027,-0.407c-0.489,0.298 -1.031,0.516 -1.601,0.651l0.027,0.38c0.515,-0.135 1.058,-0.325 1.601,-0.624l0,0Z" style="fill-rule:nonzero;"/><path d="M24.282,42.638l-0.055,-0.624c-0.488,0.271 -0.977,0.57 -1.465,0.923c-0.027,0.027 -0.054,0.027 -0.109,0.054l0.055,0.461c0.542,-0.325 1.058,-0.624 1.574,-0.841l0,0.027Z" style="fill-rule:nonzero;"/><path d="M26.751,41.878l-0.081,-0.732c-0.624,0.135 -1.276,0.325 -1.954,0.651l0.054,0.624c0.679,-0.271 1.33,-0.434 1.954,-0.543l0.027,0Z" style="fill-rule:nonzero;"/></g><path d="M27.294,43.045l0.082,0.706c1.085,0 2.307,0.353 2.876,0.977l-0.081,-1.14c-0.733,-0.407 -1.873,-0.597 -2.85,-0.543l-0.027,0Z" style="fill-rule:nonzero;"/><g id="lp-dashes4" serif:id="lp-dashes"><path d="M17.632,46.031c-0.217,-0.055 -0.461,-0.163 -0.678,-0.244l0.027,0.325c0.217,0.082 0.434,0.163 0.679,0.244l-0.028,-0.298l0,-0.027Z" style="fill-rule:nonzero;"/><path d="M18.772,46.546l-0.027,-0.325c-0.19,0 -0.38,-0.027 -0.57,-0.055l0.027,0.299l0.57,0.081Z" style="fill-rule:nonzero;"/><path d="M20.184,46.519l-0.028,-0.353c-0.298,0.055 -0.569,0.082 -0.868,0.082l0.027,0.326c0.272,0 0.57,0 0.869,-0.055Z" style="fill-rule:nonzero;"/><path d="M22.328,45.787l-0.027,-0.408c-0.489,0.299 -1.032,0.516 -1.602,0.652l0.027,0.38c0.516,-0.136 1.059,-0.326 1.602,-0.624l0,0Z" style="fill-rule:nonzero;"/><path d="M24.417,44.674l-0.054,-0.624c-0.488,0.271 -0.977,0.57 -1.465,0.922c-0.028,0.027 -0.055,0.027 -0.109,0.055l0.054,0.461c0.543,-0.326 1.059,-0.624 1.574,-0.841l0,0.027Z" style="fill-rule:nonzero;"/><path d="M26.887,43.914l-0.081,-0.733c-0.624,0.136 -1.276,0.326 -1.954,0.651l0.054,0.625c0.678,-0.272 1.33,-0.435 1.954,-0.543l0.027,0Z" style="fill-rule:nonzero;"/></g><path d="M27.484,44.999l0.082,0.733c0.76,0.027 1.927,0.136 2.849,1.113l-0.108,-1.113c-0.869,-0.57 -1.954,-0.787 -2.823,-0.733l0,0Z" style="fill-rule:nonzero;"/><g id="lp-dashes5" serif:id="lp-dashes"><path d="M17.904,47.931c-0.217,-0.055 -0.461,-0.163 -0.679,-0.245l0.028,0.326c0.217,0.081 0.434,0.163 0.678,0.244l-0.027,-0.298l0,-0.027Z" style="fill-rule:nonzero;"/><path d="M19.044,48.446l-0.027,-0.325c-0.19,0 -0.38,-0.028 -0.57,-0.055l0.027,0.299l0.57,0.081Z" style="fill-rule:nonzero;"/><path d="M20.455,48.419l-0.027,-0.353c-0.299,0.055 -0.57,0.082 -0.869,0.082l0.028,0.325c0.271,0 0.569,0 0.868,-0.054Z" style="fill-rule:nonzero;"/><path d="M22.599,47.686l-0.027,-0.407c-0.489,0.299 -1.031,0.516 -1.601,0.652l0.027,0.38c0.515,-0.136 1.058,-0.326 1.601,-0.625l0,0Z" style="fill-rule:nonzero;"/><path d="M24.689,46.574l-0.054,-0.625c-0.489,0.272 -0.977,0.57 -1.466,0.923c-0.027,0.027 -0.054,0.027 -0.109,0.054l0.055,0.462c0.543,-0.326 1.058,-0.624 1.574,-0.842l0,0.028Z" style="fill-rule:nonzero;"/><path d="M27.159,45.814l-0.082,-0.733c-0.624,0.136 -1.275,0.326 -1.954,0.651l0.054,0.624c0.679,-0.271 1.33,-0.434 1.954,-0.542l0.028,0Z" style="fill-rule:nonzero;"/></g><path d="M27.674,46.954l0.082,0.705c1.248,0.109 2.279,0.679 2.876,1.493l-0.081,-1.167c-0.841,-0.76 -1.954,-1.059 -2.877,-1.031l0,0Z" style="fill-rule:nonzero;"/><g id="lp-dashes6" serif:id="lp-dashes"><path d="M18.175,49.83c-0.217,-0.054 -0.461,-0.163 -0.678,-0.244l0.027,0.326c0.217,0.081 0.434,0.163 0.678,0.244l-0.027,-0.299l0,-0.027Z" style="fill-rule:nonzero;"/><path d="M19.315,50.346l-0.027,-0.326c-0.19,0 -0.38,-0.027 -0.57,-0.054l0.027,0.299l0.57,0.081Z" style="fill-rule:nonzero;"/><path d="M20.726,50.319l-0.027,-0.353c-0.298,0.054 -0.57,0.081 -0.868,0.081l0.027,0.326c0.271,0 0.57,0 0.868,-0.054Z" style="fill-rule:nonzero;"/><path d="M22.87,49.586l-0.027,-0.407c-0.488,0.299 -1.031,0.516 -1.601,0.651l0.027,0.38c0.516,-0.135 1.059,-0.325 1.601,-0.624l0,0Z" style="fill-rule:nonzero;"/><path d="M24.96,48.473l-0.054,-0.624c-0.489,0.272 -0.977,0.57 -1.466,0.923c-0.027,0.027 -0.054,0.027 -0.108,0.054l0.054,0.462c0.543,-0.326 1.059,-0.625 1.574,-0.842l0,0.027Z" style="fill-rule:nonzero;"/><path d="M27.43,47.713l-0.081,-0.732c-0.625,0.135 -1.276,0.325 -1.955,0.651l0.055,0.624c0.678,-0.271 1.33,-0.434 1.954,-0.543l0.027,0Z" style="fill-rule:nonzero;"/></g><path d="M27.864,48.908l0.082,0.732c1.655,0.245 2.306,0.977 2.931,1.656l-0.136,-1.221c-0.624,-0.543 -1.303,-1.167 -2.85,-1.195l-0.027,0.028Z" style="fill-rule:nonzero;"/><g id="lp-dashes7" serif:id="lp-dashes"><path d="M18.447,51.73c-0.217,-0.054 -0.462,-0.163 -0.679,-0.244l0.027,0.326c0.217,0.081 0.435,0.162 0.679,0.244l-0.027,-0.299l0,-0.027Z" style="fill-rule:nonzero;"/><path d="M19.587,52.246l-0.028,-0.326c-0.19,0 -0.38,-0.027 -0.57,-0.054l0.028,0.298l0.57,0.082Z" style="fill-rule:nonzero;"/><path d="M20.998,52.219l-0.027,-0.353c-0.299,0.054 -0.57,0.081 -0.869,0.081l0.027,0.326c0.272,0 0.57,0 0.869,-0.054Z" style="fill-rule:nonzero;"/><path d="M23.142,51.486l-0.027,-0.407c-0.489,0.298 -1.032,0.515 -1.602,0.651l0.028,0.38c0.515,-0.136 1.058,-0.326 1.601,-0.624l0,0Z" style="fill-rule:nonzero;"/><path d="M25.232,50.373l-0.055,-0.624c-0.488,0.271 -0.977,0.57 -1.465,0.923c-0.027,0.027 -0.054,0.027 -0.109,0.054l0.055,0.461c0.542,-0.325 1.058,-0.624 1.574,-0.841l0,0.027Z" style="fill-rule:nonzero;"/><path d="M27.701,49.613l-0.081,-0.733c-0.624,0.136 -1.276,0.326 -1.954,0.652l0.054,0.624c0.679,-0.271 1.33,-0.434 1.954,-0.543l0.027,0Z" style="fill-rule:nonzero;"/></g><g id="rp-dashes"><path d="M38.53,35.935c-0.651,-0.299 -1.303,-0.516 -1.954,-0.652l-0.081,0.408c0.624,0.081 1.275,0.271 1.954,0.542l0.054,-0.298l0.027,0Z" style="fill-rule:nonzero;"/><path d="M40.593,37.183c-0.027,-0.027 -0.055,-0.027 -0.109,-0.054c-0.488,-0.353 -0.977,-0.679 -1.465,-0.923l-0.055,0.272c0.516,0.217 1.032,0.515 1.574,0.841l0.055,-0.109l0,-0.027Z" style="fill-rule:nonzero;"/></g><path d="M36.033,35.202l-0.081,0.434c-1.547,-0.054 -3.04,0.19 -4.288,1.574l0.081,-0.732c1.031,-1.195 2.551,-1.439 4.288,-1.276l0,0Z" style="fill-rule:nonzero;"/><path d="M35.843,37.156l-0.081,0.434c-1.71,-0.081 -3.094,0.435 -4.125,1.656l0.027,-0.679c0.76,-1.004 2.008,-1.574 4.179,-1.411l0,0Z" style="fill-rule:nonzero;"/><g id="rp-dashes1" serif:id="rp-dashes"><path d="M38.394,37.835c-0.651,-0.299 -1.302,-0.516 -1.954,-0.652l-0.081,0.407c0.624,0.082 1.275,0.272 1.954,0.543l0.054,-0.298l0.027,0Z" style="fill-rule:nonzero;"/><path d="M40.457,39.083c-0.027,-0.027 -0.054,-0.027 -0.109,-0.054c-0.488,-0.353 -0.977,-0.679 -1.465,-0.923l-0.054,0.271c0.515,0.217 1.031,0.516 1.574,0.842l0.054,-0.109l0,-0.027Z" style="fill-rule:nonzero;"/></g><path d="M35.653,39.137l-0.054,0.38c-1.71,-0.027 -3.013,0.543 -3.99,1.737l0,-0.678c0.679,-0.815 1.683,-1.629 4.017,-1.466l0.027,0.027Z" style="fill-rule:nonzero;"/><g id="rp-dashes2" serif:id="rp-dashes"><path d="M38.259,39.87c-0.652,-0.298 -1.303,-0.516 -1.954,-0.651l-0.082,0.407c0.624,0.081 1.276,0.271 1.954,0.543l0.055,-0.299l0.027,0Z" style="fill-rule:nonzero;"/><path d="M40.321,41.118c-0.027,-0.027 -0.054,-0.027 -0.108,-0.054c-0.489,-0.353 -0.977,-0.678 -1.466,-0.923l-0.054,0.272c0.516,0.217 1.031,0.515 1.574,0.841l0.054,-0.108l0,-0.028Z" style="fill-rule:nonzero;"/></g><path d="M35.463,41.118l-0.081,0.38c-2.361,0.028 -3.094,1.086 -3.8,1.792l0.027,-0.706c0.652,-0.814 1.629,-1.656 3.854,-1.493l0,0.027Z" style="fill-rule:nonzero;"/><g id="rp-dashes3" serif:id="rp-dashes"><path d="M38.123,41.824c-0.651,-0.298 -1.303,-0.516 -1.954,-0.651l-0.081,0.407c0.624,0.081 1.275,0.271 1.954,0.543l0.054,-0.299l0.027,0Z" style="fill-rule:nonzero;"/><path d="M40.186,43.073c-0.028,-0.028 -0.055,-0.028 -0.109,-0.055c-0.488,-0.353 -0.977,-0.678 -1.465,-0.922l-0.055,0.271c0.516,0.217 1.032,0.516 1.574,0.841l0.055,-0.108l0,-0.027Z" style="fill-rule:nonzero;"/></g><path d="M35.273,43.045l-0.081,0.38c-1.14,0.055 -2.28,0.245 -3.637,1.873l0,-0.706c1.357,-1.709 3.013,-1.547 3.691,-1.519l0.027,-0.028Z" style="fill-rule:nonzero;"/><g id="rp-dashes4" serif:id="rp-dashes"><path d="M37.987,43.805c-0.651,-0.298 -1.302,-0.515 -1.954,-0.651l-0.081,0.407c0.624,0.081 1.275,0.271 1.954,0.543l0.054,-0.299l0.027,0Z" style="fill-rule:nonzero;"/><path d="M40.05,45.054c-0.027,-0.027 -0.054,-0.027 -0.109,-0.055c-0.488,-0.352 -0.977,-0.678 -1.465,-0.922l-0.054,0.271c0.515,0.217 1.031,0.516 1.574,0.841l0.054,-0.108l0,-0.027Z" style="fill-rule:nonzero;"/></g><path d="M35.083,44.972l-0.054,0.407c-1.004,0.109 -1.981,0.163 -3.501,1.982l0,-0.733c0.353,-0.407 1.167,-1.737 3.555,-1.629l0,-0.027Z" style="fill-rule:nonzero;"/><g id="rp-dashes5" serif:id="rp-dashes"><path d="M37.852,45.705c-0.652,-0.298 -1.303,-0.516 -1.954,-0.651l-0.082,0.407c0.624,0.081 1.276,0.271 1.954,0.543l0.054,-0.299l0.028,0Z" style="fill-rule:nonzero;"/><path d="M39.914,46.954c-0.027,-0.028 -0.054,-0.028 -0.108,-0.055c-0.489,-0.353 -0.977,-0.678 -1.466,-0.923l-0.054,0.272c0.515,0.217 1.031,0.516 1.574,0.841l0.054,-0.108l0,-0.027Z" style="fill-rule:nonzero;"/></g><path d="M34.921,46.954l-0.082,0.379c-1.167,0.055 -2.28,0.706 -3.338,2.036l0.027,-0.76c1.384,-1.954 3.393,-1.655 3.393,-1.655l0,0Z" style="fill-rule:nonzero;"/><g id="rp-dashes6" serif:id="rp-dashes"><path d="M37.716,47.686c-0.651,-0.298 -1.303,-0.515 -1.954,-0.651l-0.082,0.407c0.625,0.081 1.276,0.271 1.954,0.543l0.055,-0.299l0.027,0Z" style="fill-rule:nonzero;"/><path d="M39.779,48.935c-0.028,-0.027 -0.055,-0.027 -0.109,-0.055c-0.489,-0.352 -0.977,-0.678 -1.466,-0.922l-0.054,0.271c0.516,0.217 1.031,0.516 1.574,0.841l0.055,-0.108l0,-0.027Z" style="fill-rule:nonzero;"/></g><path d="M34.703,48.908l-0.054,0.38c-1.465,0.162 -2.361,1.085 -3.175,2.089l0,-0.76c1.33,-1.764 2.714,-1.709 3.229,-1.709l0,0Z" style="fill-rule:nonzero;"/><g id="rp-dashes7" serif:id="rp-dashes"><path d="M37.444,49.586c-0.651,-0.298 -1.302,-0.516 -1.954,-0.651l-0.081,0.407c0.624,0.081 1.276,0.271 1.954,0.543l0.054,-0.299l0.027,0Z" style="fill-rule:nonzero;"/><path d="M39.507,50.835c-0.027,-0.028 -0.054,-0.028 -0.108,-0.055c-0.489,-0.353 -0.977,-0.678 -1.466,-0.923l-0.054,0.272c0.515,0.217 1.031,0.516 1.574,0.841l0.054,-0.108l0,-0.027Z" style="fill-rule:nonzero;"/></g></g></g><defs><linearGradient id="_Linear1" x1="0" y1="0" x2="1" y2="0" gradientUnits="userSpaceOnUse" gradientTransform="matrix(2.64231e-15,43.1522,-43.1522,2.64231e-15,31.0395,30.3169)"><stop offset="0" style="stop-color:#1a5dad;stop-opacity:1"/><stop offset="1" style="stop-color:#afbce3;stop-opacity:1"/></linearGradient></defs></svg>