<svg width="176" height="37" viewBox="0 0 176 37" fill="none" xmlns="http://www.w3.org/2000/svg">
<path d="M21.1985 15.0252C21.3674 15.1732 22.7686 16.2918 24.4489 15.6702C24.4155 17.4083 24.28 24.7043 24.2742 25.0178C23.0749 25.439 21.8474 24.5643 21.8365 24.5553C19.1166 22.7316 17.548 23.2761 16.8304 23.786V15.2053C17.1174 14.8476 18.5328 13.3783 21.1985 15.0252Z" fill="white"/>
<path d="M11.9224 15.0253C14.6533 13.3386 16.0703 14.9193 16.3082 15.2276V23.7836C15.5995 23.2686 14.031 22.715 11.2941 24.5491C11.2722 24.5645 10.0476 25.4391 8.84704 25.0179C8.84059 24.7045 8.7048 17.4084 8.67297 15.6697C10.352 16.2919 11.7523 15.1733 11.9224 15.0253Z" fill="white"/>
<path d="M15.953 25.5994C14.2079 27.7173 8.21253 26.9622 7.06372 26.7964C7.04478 26.3932 6.61708 17.5456 6.60229 17.2239C7.29776 16.8941 7.81764 16.4173 8.15828 16.0349L8.33201 25.3773L8.48385 25.4453C10.012 26.1299 11.532 25.0215 11.5956 24.9739C13.9719 23.3814 15.3176 23.7577 15.9325 24.1558C16.2565 24.3318 16.4221 24.6388 16.4221 24.6388C16.4221 24.6388 16.2905 25.1769 15.953 25.5994Z" fill="white"/>
<path d="M26.0573 26.7954C24.9082 26.9624 18.9012 27.7189 17.1603 25.5959C16.8052 25.1771 16.695 24.6416 16.695 24.6416C16.695 24.6416 16.8672 24.3346 17.1818 24.16C17.7967 23.7592 19.1453 23.3791 21.5358 24.9806C21.5891 25.0217 23.1088 26.1302 24.6365 25.4455L24.7897 25.3775L24.9621 16.0352C25.3015 16.4189 25.8223 16.8944 26.5184 17.2241C26.503 17.5449 26.0766 26.3935 26.0573 26.7954Z" fill="white"/>
<path d="M18.3339 27.024C17.5039 26.6297 16.9025 26.1841 16.5615 25.6665H16.5509C16.2093 26.1841 15.6069 26.6297 14.7769 27.024C15.0566 27.5185 15.63 27.8152 16.5458 27.8178H16.5554C17.4728 27.8152 18.0542 27.5185 18.3339 27.024Z" fill="white"/>
<path d="M5.90994 3.67345C6.08039 3.66089 6.18383 3.53279 6.19599 3.51964L6.27727 3.4137L6.16837 3.33532C6.02582 3.2326 5.89002 3.19374 5.76797 3.22169C5.62284 3.2541 5.55866 3.36648 5.55188 3.37898L5.505 3.46407L5.57471 3.53213C5.70537 3.65898 5.82866 3.6795 5.90994 3.67345Z" fill="white"/>
<path d="M21.8376 3.6732C22.0077 3.66064 22.1128 3.53254 22.1247 3.51939L22.204 3.41346L22.0974 3.33507C21.9538 3.23236 21.8184 3.19349 21.6963 3.22144C21.5505 3.25385 21.487 3.36624 21.4796 3.37873L21.4343 3.46383L21.5046 3.53189C21.634 3.65874 21.7577 3.67925 21.8376 3.6732Z" fill="white"/>
<path d="M13.8904 3.67345C14.06 3.66089 14.1643 3.53279 14.1746 3.51964L14.2562 3.4137L14.1496 3.33532C14.0054 3.2326 13.8705 3.19374 13.7469 3.22169C13.6034 3.2541 13.5392 3.36648 13.5318 3.37898L13.4852 3.46407L13.5546 3.53213C13.6863 3.65898 13.8092 3.6795 13.8904 3.67345Z" fill="white"/>
<path d="M30.1879 0.777832H2.44397V19.4687C2.44397 19.5252 2.44778 19.5779 2.44877 19.6357C2.45679 20.36 2.5165 21.0626 2.61731 21.7459C2.64848 21.9526 2.68222 22.1607 2.72075 22.3662C2.82827 22.9236 2.97215 23.4643 3.13464 23.9934C3.18343 24.1553 3.22709 24.3184 3.28036 24.475C3.35197 24.6844 3.42871 24.8873 3.50743 25.0903C3.64677 25.4448 3.79637 25.7915 3.95722 26.1306C4.05579 26.3386 4.15791 26.5429 4.26385 26.7445C4.34546 26.8973 4.42798 27.0502 4.51308 27.2005C4.63118 27.4098 4.75356 27.6153 4.87942 27.8182C5.2336 28.3833 5.61632 28.9241 6.02343 29.4365C6.1702 29.6214 6.32046 29.8039 6.47329 29.9811C6.49321 30.0042 6.51504 30.026 6.53556 30.0505C6.68457 30.2225 6.83549 30.3933 6.9893 30.5577C7.72685 31.345 8.51378 32.0514 9.32229 32.6679C9.35504 32.6923 9.39009 32.7167 9.42377 32.7424C9.67548 32.9312 9.92984 33.1136 10.1848 33.2844C10.2223 33.3088 10.2602 33.3332 10.2991 33.3563C11.2318 33.9767 12.1739 34.4814 13.0829 34.8526C13.6454 35.0838 14.1935 35.2649 14.7182 35.3959C15.37 35.5577 15.9855 35.6451 16.542 35.6451C17.0946 35.6451 17.7072 35.5577 18.3568 35.3959C18.8783 35.2649 19.4244 35.0838 19.985 34.8526C20.8879 34.4814 21.8281 33.9767 22.7544 33.3563C22.7936 33.3332 22.8305 33.3088 22.869 33.2844C23.123 33.1136 23.375 32.9312 23.6252 32.7424C23.6593 32.7167 23.6927 32.6923 23.7257 32.6679C24.5323 32.0514 25.3151 31.345 26.0472 30.5577C26.2013 30.3933 26.3503 30.2225 26.5018 30.0505C26.5211 30.026 26.5417 30.0042 26.5609 29.9811C26.715 29.8039 26.8615 29.6214 27.0091 29.4365C27.415 28.9241 27.7965 28.3833 28.1471 27.8182C28.273 27.6153 28.395 27.4098 28.5131 27.2005C28.5966 27.0502 28.6801 26.8973 28.7597 26.7445C28.8663 26.5429 28.9684 26.3386 29.066 26.1306C29.2266 25.7915 29.375 25.4448 29.513 25.0903C29.5914 24.8873 29.6684 24.6844 29.7378 24.475C29.8129 24.2593 29.8797 24.0422 29.9439 23.8239C30.0833 23.3474 30.2008 22.8632 30.2945 22.3662C30.3356 22.1607 30.3684 21.9526 30.3992 21.7459C30.5 21.0626 30.5604 20.36 30.5655 19.6357C30.5681 19.5779 30.572 19.5252 30.572 19.4687V0.777832H30.1879ZM22.1321 3.32763C22.6443 3.32763 23.4794 3.5013 23.5334 5.09549C23.8384 5.52094 24.303 5.91523 24.8534 6.19523C25.8186 6.35805 26.909 6.38823 28.0443 6.28447C27.9236 6.6149 26.7767 7.42019 26.7979 7.4359C27.3212 7.80902 28.612 8.07357 28.612 8.07357C28.612 8.07357 27.7239 8.45924 26.9039 8.48456C26.9064 8.48653 26.909 8.48745 26.909 8.48942C24.1075 8.53467 22.9712 7.5181 22.8729 6.90004C22.8167 6.56769 23.0296 6.32142 23.4374 6.2556C23.7257 6.20805 23.6313 5.78615 23.3648 5.83271C22.7242 5.94417 22.3557 6.40006 22.4503 6.96777C22.6013 7.90404 24.0108 9.04877 27.2237 8.9091C27.9532 9.14635 28.4534 9.13386 28.9125 9.09822C28.3487 9.75607 27.8722 10.0207 27.4413 10.1584C27.5216 10.8173 27.5479 11.5799 27.5216 11.8582C26.9295 10.9907 25.5809 9.63987 24.9879 9.3268C24.96 10.1584 25.2323 11.269 25.5553 11.6499C24.7744 11.4752 24.4212 11.2341 24.0982 10.8173C23.8885 11.0684 23.2855 11.6643 22.6443 11.4752C23.0476 10.7486 23.2916 9.94972 23.2627 8.945C22.5916 8.80631 21.4598 8.18213 21.4848 5.85999C21.4989 4.92274 20.8166 4.65174 20.4676 4.27061C21.0061 3.9595 21.6226 3.32763 22.1321 3.32763ZM14.1846 3.32763C14.6951 3.32763 15.5296 3.5013 15.5861 5.09549C15.8902 5.52094 16.3538 5.91523 16.9045 6.19523C17.87 6.35805 18.9576 6.38823 20.0955 6.28447C19.9747 6.6149 18.8294 7.42019 18.851 7.4359C19.374 7.80902 20.6628 8.07357 20.6628 8.07357C20.6628 8.07357 19.775 8.45924 18.9576 8.48456C18.9576 8.48653 18.9576 8.48745 18.9598 8.48942C16.1579 8.53467 15.0252 7.5181 14.9237 6.90004C14.8691 6.56769 15.0784 6.32142 15.4882 6.2556C15.7769 6.20805 15.6821 5.78615 15.4143 5.83271C14.775 5.94417 14.409 6.40006 14.5005 6.96777C14.6536 7.90404 16.0626 9.04877 19.2748 8.9091C20.0043 9.14635 20.5062 9.13386 20.9656 9.09822C20.3995 9.75607 19.923 10.0207 19.4924 10.1584C19.5724 10.8173 19.5991 11.5799 19.5724 11.8582C18.9803 10.9907 17.6318 9.63987 17.0374 9.3268C17.0124 10.1584 17.2831 11.269 17.6042 11.6499C16.8245 11.4752 16.4752 11.2341 16.1512 10.8173C15.9413 11.0684 15.3373 11.6643 14.6951 11.4752C15.099 10.7486 15.3427 9.94972 15.3151 8.945C14.6418 8.80631 13.5093 8.18213 13.5372 5.85999C13.5491 4.92274 12.8678 4.65174 12.5178 4.27061C13.0572 3.9595 13.6721 3.32763 14.1846 3.32763ZM6.20421 3.32763C6.71541 3.32763 7.55088 3.5013 7.60546 5.09549C7.90986 5.52094 8.37444 5.91523 8.92577 6.19523C9.89098 6.35805 10.9788 6.38823 12.1161 6.28447C11.9947 6.6149 10.8491 7.42019 10.8709 7.4359C11.3936 7.80902 12.6828 8.07357 12.6828 8.07357C12.6828 8.07357 11.7963 8.45924 10.9778 8.48456C10.9778 8.48653 10.9788 8.48745 10.9788 8.48942C8.17795 8.53467 7.04388 7.5181 6.94366 6.90004C6.88908 6.56769 7.10036 6.32142 7.50814 6.2556C7.79715 6.20805 7.70239 5.78615 7.43719 5.83271C6.79695 5.94417 6.42863 6.40006 6.52051 6.96777C6.67365 7.90404 8.0832 9.04877 11.2951 8.9091C12.0243 9.14635 12.5246 9.13386 12.9847 9.09822C12.4202 9.75607 11.9421 10.0207 11.5128 10.1584C11.5924 10.8173 11.6187 11.5799 11.5924 11.8582C11.0007 10.9907 9.65207 9.63987 9.05866 9.3268C9.03269 10.1584 9.3027 11.269 9.62511 11.6499C8.84515 11.4752 8.49485 11.2341 8.16993 10.8173C7.9599 11.0684 7.35853 11.6643 6.71541 11.4752C7.12029 10.7486 7.36333 9.94972 7.33479 8.945C6.66274 8.80631 5.53024 8.18213 5.5572 5.85999C5.5691 4.92274 4.88903 4.65174 4.53774 4.27061C5.07781 3.9595 5.69174 3.32763 6.20421 3.32763ZM17.0522 34.8526C16.8897 34.8654 16.7311 34.8745 16.5767 34.8745C16.4219 34.8745 16.2607 34.8654 16.0979 34.8526C14.8238 34.7473 13.2939 34.2297 11.7388 33.3563H21.3901C19.8431 34.2297 18.3198 34.7473 17.0522 34.8526ZM25.0303 30.5577C24.2128 31.3682 23.342 32.0746 22.4599 32.6679C22.4208 32.6923 22.3845 32.7167 22.3453 32.7424H10.6571C10.6192 32.7167 10.58 32.6923 10.5425 32.6679C9.65595 32.0746 8.78096 31.3682 7.9599 30.5577C7.79294 30.3933 7.63018 30.2225 7.46868 30.0505H25.5187C25.3581 30.2225 25.1957 30.3933 25.0303 30.5577ZM29.818 16.2096H25.1366C25.265 16.3753 25.4513 16.5943 25.7017 16.8251H29.7988C29.7988 16.9035 29.7962 19.5008 29.7962 19.5175H26.9668L26.9372 20.1314H29.7795C29.7538 20.6824 29.6999 21.2193 29.6196 21.7459C29.5868 21.9539 29.5496 22.1607 29.5098 22.3662C29.479 22.5177 29.4456 22.6719 29.4109 22.8234H26.8081L26.7786 23.4386H29.2555C29.1585 23.7905 29.05 24.136 28.9287 24.475C28.8548 24.6819 28.779 24.8886 28.6955 25.0903C28.5517 25.4448 28.3924 25.7915 28.2267 26.1306H26.6483L26.6174 26.7445H27.9069C27.8196 26.8973 27.7348 27.0502 27.6449 27.2005C27.5216 27.4098 27.3913 27.6153 27.2596 27.8182C26.8833 28.3872 26.4768 28.9279 26.0459 29.4365H6.98864C6.55739 28.9279 6.14771 28.3872 5.76947 27.8182C5.63525 27.6153 5.5065 27.4098 5.38031 27.2005C5.29133 27.0502 5.20401 26.8973 5.11924 26.7445H6.50156L6.47203 26.1306H4.81294C4.64407 25.7915 4.48638 25.4448 4.34257 25.0903C4.25813 24.8886 4.18139 24.6819 4.10721 24.475C3.9855 24.136 3.876 23.7905 3.77902 23.4386H6.3423L6.31244 22.8234H3.60758C3.57259 22.6719 3.53787 22.5177 3.50743 22.3662C3.46757 22.1607 3.43068 21.9539 3.39886 21.7459C3.31633 21.2193 3.26175 20.6824 3.2367 20.1314H6.18237L6.15251 19.5175H3.21941C3.21941 19.5008 3.21776 19.4841 3.21776 19.4687V16.8251H7.41923C7.66806 16.5943 7.85495 16.3753 7.9837 16.2096H3.21684V13.1207H29.818V16.2096Z" fill="white"/>
<path d="M39.5273 6.10815V11.951C39.5273 13.9093 40.3405 14.8216 41.5816 14.8216C42.8999 14.8216 43.6927 13.9182 43.6927 11.951V6.10815H45.5236V11.833C45.5236 14.9195 43.9352 16.2932 41.5147 16.2932C39.2028 16.2932 37.6965 14.9959 37.6965 11.843V6.10815H39.5273Z" fill="white"/>
<path d="M47.5276 11.0436C47.5276 10.2077 47.501 9.51774 47.4682 8.89079H49.068L49.1576 9.97796H49.2006C49.52 9.41605 50.3041 8.72729 51.5074 8.72729C52.7687 8.72729 54.0806 9.54043 54.0806 11.8302V16.1295H52.2485V12.0455C52.2485 11.007 51.8672 10.2153 50.8672 10.2153C50.1387 10.2153 49.6349 10.7299 49.443 11.2892C49.3874 11.4394 49.3596 11.6617 49.3596 11.87V16.1295H47.5276V11.0436Z" fill="white"/>
<path d="M56.0303 16.1296V8.8909H57.8611V16.1296H56.0303ZM56.9256 7.77225C56.2867 7.77225 55.8662 7.30886 55.8675 6.72801C55.8662 6.14282 56.3006 5.68823 56.947 5.68823C57.6011 5.68823 58.0177 6.13837 58.0241 6.72801C58.0266 7.30886 57.6061 7.77225 56.9407 7.77225H56.9256Z" fill="white"/>
<path d="M60.9895 8.89087L62.1625 12.5671C62.3683 13.204 62.5224 13.7868 62.6562 14.3758H62.7004C62.8367 13.7767 62.9971 13.2084 63.1928 12.5671L64.3393 8.89087H66.2636L63.4996 16.1296H61.6966L59.0097 8.89087H60.9895Z" fill="white"/>
<path d="M68.4493 11.7276C68.5314 10.9871 68.9999 9.96372 70.1262 9.96372C71.3522 9.96372 71.6438 11.0578 71.6362 11.7276H68.4493ZM73.2953 13.0168C73.3295 12.8476 73.3597 12.5755 73.3597 12.2352C73.3597 10.6494 72.5933 8.71436 70.241 8.71436C67.9128 8.71436 66.7006 10.6051 66.7006 12.6026C66.7006 14.8211 68.0769 16.2731 70.4279 16.2731C71.4784 16.2731 72.337 16.0761 72.957 15.8135L72.6867 14.5534C72.1325 14.7567 71.5302 14.8886 70.688 14.8886C69.5163 14.8886 68.5011 14.3154 68.4531 13.0035L73.2953 13.0168Z" fill="white"/>
<path d="M74.8474 11.2185C74.8474 10.2488 74.8273 9.53603 74.7881 8.89079H76.3727L76.4409 10.2665H76.4914C76.8487 9.24687 77.6922 8.72729 78.4737 8.72729C78.6518 8.72729 78.7566 8.73422 78.9031 8.76706V10.4912C78.7313 10.4583 78.5722 10.4388 78.3512 10.4388C77.4801 10.4388 76.874 10.9943 76.7111 11.8239C76.6795 11.9855 76.6644 12.1787 76.6644 12.3757V16.1295H74.8323L74.8474 11.2185Z" fill="white"/>
<path d="M80.0389 14.4467C80.443 14.6966 81.2308 14.9744 81.8861 14.9744C82.6917 14.9744 83.0515 14.6367 83.0515 14.162C83.0515 13.672 82.7523 13.4233 81.8621 13.107C80.4455 12.6215 79.8558 11.8507 79.8621 10.9927C79.8621 9.72 80.9189 8.72754 82.6084 8.72754C83.4064 8.72754 84.1033 8.92704 84.5288 9.16003L84.1652 10.4448C83.8609 10.2724 83.275 10.0287 82.6349 10.0287C81.9834 10.0287 81.621 10.3501 81.621 10.7951C81.621 11.2547 81.9695 11.475 82.8849 11.809C84.2018 12.2749 84.8091 12.9467 84.8167 14.0136C84.8167 15.3337 83.7877 16.2863 81.876 16.2863C80.9998 16.2863 80.2043 16.0761 79.6714 15.7787L80.0389 14.4467Z" fill="white"/>
<path d="M86.3323 16.1296V8.8909H88.1631V16.1296H86.3323ZM87.2275 7.77225C86.5886 7.77225 86.1669 7.30886 86.1694 6.72801C86.1669 6.14282 86.6025 5.68823 87.2489 5.68823C87.903 5.68823 88.3197 6.13837 88.326 6.72801C88.3272 7.30886 87.9081 7.77225 87.2427 7.77225H87.2275Z" fill="white"/>
<path d="M92.5279 7.03101V8.89084H94.2703V10.2545H92.5279V13.449C92.5279 14.3347 92.764 14.7848 93.4648 14.7848C93.7968 14.7848 93.9686 14.7621 94.1757 14.7053L94.2123 16.098C93.937 16.2009 93.4572 16.2861 92.8802 16.2861C92.2072 16.2861 91.6478 16.0569 91.307 15.6895C90.9142 15.2735 90.7349 14.6074 90.7349 13.6592V10.2545H89.7021V8.89084H90.7349V7.54301L92.5279 7.03101Z" fill="white"/>
<path d="M97.1959 8.89111L98.5015 12.7719C98.6454 13.2201 98.8019 13.7731 98.9093 14.1753H98.9522C99.0646 13.7687 99.1997 13.2239 99.3361 12.7567L100.47 8.89111H102.421L100.608 13.8312C99.6151 16.5332 98.9434 17.7334 98.0899 18.4846C97.3714 19.1122 96.6251 19.3501 96.1706 19.4101L95.7577 17.8691C96.0645 17.7927 96.4471 17.6279 96.8146 17.3697C97.1631 17.1412 97.5671 16.7138 97.8196 16.2157C97.8916 16.0907 97.9345 15.984 97.9345 15.8943C97.9345 15.8148 97.9143 15.7081 97.8386 15.5377L95.1794 8.89111H97.1959Z" fill="white"/>
<path d="M40.8318 29.4051C39.7434 29.4051 39.0477 28.3521 39.0477 26.9594C39.0477 25.7523 39.5742 24.4985 40.8596 24.4985C42.1222 24.4985 42.626 25.7977 42.626 26.9353C42.626 28.3925 41.8962 29.4051 40.8469 29.4051H40.8318ZM40.8179 30.7346C42.6538 30.7346 44.5225 29.5414 44.5225 26.8811C44.5225 24.6866 43.0806 23.1689 40.9265 23.1689C38.7446 23.1689 37.1815 24.6311 37.1815 27.0061C37.1815 29.3255 38.761 30.7346 40.8027 30.7346H40.8179Z" fill="white"/>
<path d="M46.2333 30.5714V24.6964H45.2522V23.3328H46.2333V23.0246C46.2333 22.0865 46.4846 21.1434 47.1121 20.5486C47.6474 20.0398 48.3709 19.8501 49.0061 19.8501C49.4922 19.8501 49.8823 19.9312 50.1676 20.0297L50.0402 21.4363C49.8419 21.3643 49.5995 21.3062 49.2598 21.3062C48.3545 21.3062 48.0515 22.0676 48.0515 22.9539V23.3328H49.6348V24.6964H48.0641V30.5714H46.2333Z" fill="white"/>
<path d="M56.308 30.5714L53.063 20.5486H55.0617L56.4292 25.1067C56.8155 26.3693 57.1489 27.5436 57.409 28.7558H57.4418C57.707 27.5727 58.0706 26.3504 58.4595 25.1332L59.9229 20.5486H61.8712L58.4065 30.5714H56.308Z" fill="white"/>
<path d="M62.9786 30.5713V23.3327H64.8106V30.5713H62.9786ZM63.8738 22.214C63.2361 22.214 62.8144 21.7494 62.8157 21.1698C62.8144 20.5839 63.25 20.1294 63.8965 20.1294C64.5493 20.1294 64.966 20.5789 64.9722 21.1698C64.9748 21.7494 64.5544 22.214 63.8889 22.214H63.8738Z" fill="white"/>
<path d="M72.0947 30.3533C71.7159 30.5325 70.9609 30.727 70.0518 30.727C67.7828 30.727 66.3194 29.2711 66.3194 27.0249C66.3194 24.857 67.8005 23.1726 70.3472 23.1726C71.0227 23.1726 71.6957 23.3203 72.1149 23.5035L71.7892 24.8797C71.495 24.7358 71.0568 24.5969 70.4053 24.5969C69.0088 24.5969 68.1818 25.6171 68.1881 26.9441C68.1881 28.429 69.1641 29.28 70.4116 29.28C71.0379 29.28 71.4912 29.1437 71.8485 28.9946L72.0947 30.3533Z" fill="white"/>
<path d="M75.7739 21.4717V23.3328H77.5163V24.6965H75.7739V27.8896C75.7739 28.776 76.0101 29.2268 76.7108 29.2268C77.0429 29.2268 77.2146 29.2028 77.4216 29.146L77.4583 30.5387C77.183 30.6422 76.7032 30.7268 76.1262 30.7268C75.4532 30.7268 74.8939 30.4983 74.5529 30.1308C74.1602 29.7154 73.981 29.0487 73.981 28.1005V24.6965H72.9481V23.3328H73.981V21.9843L75.7739 21.4717Z" fill="white"/>
<path d="M82.0055 29.4051C80.9158 29.4051 80.2213 28.3521 80.2213 26.9594C80.2213 25.7523 80.7479 24.4985 82.032 24.4985C83.2959 24.4985 83.7984 25.7977 83.7984 26.9353C83.7984 28.3925 83.0699 29.4051 82.0206 29.4051H82.0055ZM81.9916 30.7346C83.8275 30.7346 85.6949 29.5414 85.6949 26.8811C85.6949 24.6866 84.2542 23.1689 82.1002 23.1689C79.9183 23.1689 78.3539 24.6311 78.3539 27.0061C78.3539 29.3255 79.9348 30.7346 81.9764 30.7346H81.9916Z" fill="white"/>
<path d="M87.2174 25.6601C87.2174 24.6904 87.1984 23.977 87.158 23.3331H88.7439L88.8108 24.7081H88.8626C89.2199 23.6892 90.0633 23.1689 90.8449 23.1689C91.0229 23.1689 91.1277 23.1765 91.2742 23.2093V24.9328C91.1025 24.9 90.9434 24.8811 90.7225 24.8811C89.85 24.8811 89.2451 25.4353 89.081 26.2649C89.0507 26.4265 89.0343 26.621 89.0343 26.8167V30.5717H87.2035L87.2174 25.6601Z" fill="white"/>
<path d="M92.5104 30.5716V23.333H94.3412V30.5716H92.5104ZM93.4056 22.2142C92.7667 22.2142 92.3462 21.7496 92.3475 21.1701C92.3462 20.5842 92.7806 20.1296 93.4271 20.1296C94.0811 20.1296 94.4978 20.5791 94.5041 21.1701C94.5066 21.7496 94.0862 22.2142 93.4207 22.2142H93.4056Z" fill="white"/>
<path d="M100.146 28.0263C100.146 28.1538 100.133 28.2978 100.094 28.424C99.9183 28.9543 99.3917 29.4266 98.6619 29.4266C98.0837 29.4266 97.6177 29.092 97.6177 28.3836C97.6177 27.2813 98.8539 27.0086 100.146 27.0263V28.0263ZM101.926 26.2207C101.926 24.6323 101.263 23.1689 98.941 23.1689C97.802 23.1689 96.8652 23.4795 96.3172 23.8116L96.6809 24.9997C97.1733 24.6879 97.917 24.4594 98.6266 24.4594C99.9082 24.4543 100.096 25.246 100.096 25.7207V25.8407C97.4296 25.8306 95.8021 26.7548 95.8021 28.5818C95.8021 29.6854 96.6165 30.7346 98.0849 30.7346C99.0218 30.7346 99.7793 30.3356 100.218 29.7649H100.262L100.388 30.5717H102.038C101.959 30.1248 101.926 29.4859 101.926 28.8281V26.2207Z" fill="white"/>
<path d="M109.03 35.4836V0.938965" stroke="white" stroke-width="0.777593" stroke-miterlimit="10"/>
<path d="M116.573 13.8256H117.668V17.3341H121.724V13.8256H122.819V22.2112H121.724V18.2797H117.668V22.2112H116.573V13.8256ZM129.703 16.1895V20.5565C129.703 21.191 129.715 21.7384 129.753 22.2112H128.782L128.72 21.2283H128.695C128.421 21.7135 127.774 22.348 126.705 22.348C125.759 22.348 124.627 21.8131 124.627 19.7104V16.1895H125.722V19.5114C125.722 20.656 126.082 21.4398 127.065 21.4398C127.799 21.4398 128.309 20.9297 128.509 20.432C128.571 20.2828 128.608 20.0837 128.608 19.8722V16.1895H129.703ZM131.517 22.2112V17.8193C131.517 17.1848 131.492 16.6872 131.467 16.1895H132.425L132.475 17.1724H132.512C132.848 16.6001 133.408 16.0651 134.416 16.0651C135.224 16.0651 135.846 16.5627 136.108 17.2719H136.132C136.319 16.9236 136.568 16.6747 136.817 16.4881C137.178 16.2144 137.563 16.0651 138.136 16.0651C138.944 16.0651 140.126 16.5876 140.126 18.6778V22.2112H139.056V18.8147C139.056 17.6452 138.621 16.9609 137.75 16.9609C137.115 16.9609 136.643 17.4212 136.443 17.9438C136.394 18.1055 136.356 18.2921 136.356 18.4912V22.2112H135.286V18.6032C135.286 17.6452 134.863 16.9609 134.03 16.9609C133.358 16.9609 132.848 17.5083 132.674 18.0557C132.612 18.205 132.587 18.4041 132.587 18.5907V22.2112H131.517ZM146.123 18.5161V20.768C146.123 21.2905 146.148 21.8006 146.21 22.2112H145.227L145.14 21.4523H145.103C144.767 21.925 144.12 22.348 143.261 22.348C142.042 22.348 141.42 21.4896 141.42 20.6187C141.42 19.163 142.714 18.3668 145.04 18.3792V18.2548C145.04 17.7696 144.904 16.8613 143.672 16.8738C143.099 16.8738 142.515 17.0355 142.092 17.3217L141.843 16.5876C142.341 16.2766 143.075 16.0651 143.834 16.0651C145.675 16.0651 146.123 17.3217 146.123 18.5161ZM145.065 20.1832V19.1381C143.871 19.1133 142.515 19.3248 142.515 20.4943C142.515 21.2159 142.988 21.5393 143.535 21.5393C144.331 21.5393 144.841 21.0417 145.015 20.5316C145.053 20.4072 145.065 20.2828 145.065 20.1832ZM147.895 22.2112V17.8193C147.895 17.1848 147.882 16.6872 147.845 16.1895H148.815L148.878 17.1848H148.902C149.201 16.625 149.898 16.0651 150.893 16.0651C151.727 16.0651 153.021 16.5627 153.021 18.628V22.2112H151.926V18.74C151.926 17.7696 151.565 16.9609 150.532 16.9609C149.823 16.9609 149.263 17.471 149.064 18.0806C149.014 18.2175 148.99 18.4041 148.99 18.5907V22.2112H147.895ZM155.891 22.2112H154.796V16.1895H155.891V22.2112ZM155.343 13.8132C155.741 13.8132 156.015 14.1118 156.015 14.4975C156.015 14.8707 155.754 15.1693 155.318 15.1693C154.92 15.1693 154.659 14.8707 154.659 14.4975C154.659 14.1242 154.933 13.8132 155.343 13.8132ZM157.961 15.0698L159.031 14.7463V16.1895H160.598V17.0231H159.031V20.2703C159.031 21.0168 159.242 21.4398 159.852 21.4398C160.15 21.4398 160.325 21.4149 160.486 21.3652L160.536 22.1987C160.325 22.2734 159.989 22.348 159.566 22.348C159.055 22.348 158.645 22.1739 158.384 21.8877C158.085 21.5518 157.961 21.0168 157.961 20.3076V17.0231H157.028V16.1895H157.961V15.0698ZM162.925 22.2112H161.831V16.1895H162.925V22.2112ZM162.378 13.8132C162.776 13.8132 163.05 14.1118 163.05 14.4975C163.05 14.8707 162.789 15.1693 162.353 15.1693C161.955 15.1693 161.694 14.8707 161.694 14.4975C161.694 14.1242 161.967 13.8132 162.378 13.8132ZM169.586 19.3994H165.356C165.381 20.8799 166.314 21.4896 167.422 21.4896C168.205 21.4896 168.691 21.3527 169.089 21.1785L169.288 21.9624C168.902 22.1365 168.23 22.348 167.272 22.348C165.418 22.348 164.311 21.1163 164.311 19.2999C164.311 17.4834 165.381 16.0651 167.135 16.0651C169.114 16.0651 169.624 17.782 169.624 18.8893C169.624 19.1133 169.611 19.275 169.586 19.3994ZM165.369 18.6156H168.566C168.579 17.9313 168.28 16.8489 167.048 16.8489C165.929 16.8489 165.456 17.8567 165.369 18.6156ZM170.569 21.925L170.83 21.1039C171.166 21.303 171.738 21.5269 172.286 21.5269C173.07 21.5269 173.443 21.1412 173.443 20.6311C173.443 20.1086 173.132 19.8349 172.336 19.5363C171.241 19.1381 170.731 18.5534 170.731 17.8318C170.731 16.8613 171.527 16.0651 172.808 16.0651C173.418 16.0651 173.953 16.2268 174.276 16.4383L174.015 17.2346C173.779 17.0853 173.343 16.8738 172.784 16.8738C172.137 16.8738 171.788 17.247 171.788 17.6949C171.788 18.1926 172.137 18.4165 172.92 18.7276C173.953 19.1133 174.5 19.6358 174.5 20.5316C174.5 21.6015 173.667 22.348 172.261 22.348C171.602 22.348 170.992 22.1739 170.569 21.925Z" fill="white"/>
</svg>
